STARTFONT 2.3
FONT -FontForge-Monofett-Book-R-Normal--8-80-72-72-P-47-ISO10646-1
SIZE 8 72 72  4
FONTBOUNDINGBOX 6 10 0 -2
COMMENT "Generated by fontforge, http://fontforge.sourceforge.net"
COMMENT "Copyright (c) 2011 by vernon adams. All rights reserved."
STARTPROPERTIES 41
FOUNDRY "FontForge"
FAMILY_NAME "Monofett"
WEIGHT_NAME "Book"
SLANT "R"
SETWIDTH_NAME "Normal"
ADD_STYLE_NAME ""
PIXEL_SIZE 8
POINT_SIZE 80
RESOLUTION_X 72
RESOLUTION_Y 72
SPACING "P"
AVERAGE_WIDTH 47
CHARSET_REGISTRY "ISO10646"
CHARSET_ENCODING "1"
FONTNAME_REGISTRY ""
CHARSET_COLLECTIONS "ISO8859-2 ISO8859-9 ISO8859-4 ISO10646-1"
BITS_PER_PIXEL 4
FONT_NAME "Monofett"
FACE_NAME "Monofett"
COPYRIGHT "Copyright (c) 2011 by vernon adams. All rights reserved."
FONT_VERSION "1.000"
FONT_ASCENT 6
FONT_DESCENT 2
UNDERLINE_POSITION -1
UNDERLINE_THICKNESS 1
X_HEIGHT 5
CAP_HEIGHT 5
RAW_ASCENT 799
RAW_DESCENT 200
NORM_SPACE 1
RELATIVE_WEIGHT 40
RELATIVE_SETWIDTH 50
SUPERSCRIPT_X 0
SUPERSCRIPT_Y 3
SUPERSCRIPT_SIZE 5
SUBSCRIPT_X 0
SUBSCRIPT_Y 1
SUBSCRIPT_SIZE 5
FIGURE_WIDTH 5
AVG_LOWERCASE_WIDTH 50
AVG_UPPERCASE_WIDTH 50
ENDPROPERTIES
CHARS 409
STARTCHAR uni000D
ENCODING 13
SWIDTH 144 0
DWIDTH 1 0
BBX 1 1 0 0
BITMAP
00
ENDCHAR
STARTCHAR space
ENCODING 32
SWIDTH 144 0
DWIDTH 1 0
BBX 1 1 0 0
BITMAP
00
ENDCHAR
STARTCHAR exclam
ENCODING 33
SWIDTH 424 0
DWIDTH 3 0
BBX 4 6 0 0
BITMAP
1520
C8F3
FAF6
FCF6
FDF6
8EC1
ENDCHAR
STARTCHAR quotedbl
ENCODING 34
SWIDTH 424 0
DWIDTH 3 0
BBX 4 6 0 0
BITMAP
1520
C7B3
FFF6
FFF6
FFF6
8EC1
ENDCHAR
STARTCHAR numbersign
ENCODING 35
SWIDTH 482 0
DWIDTH 4 0
BBX 4 6 0 0
BITMAP
1540
CAAA
F77D
F57D
FFFD
8EE6
ENDCHAR
STARTCHAR dollar
ENCODING 36
SWIDTH 578 0
DWIDTH 5 0
BBX 5 6 0 0
BITMAP
155300
CA6B60
F86DA0
FB89A0
FD9E90
8EFD30
ENDCHAR
STARTCHAR percent
ENCODING 37
SWIDTH 578 0
DWIDTH 5 0
BBX 5 6 0 0
BITMAP
155300
97AF60
E98CA0
FD7490
FFFF90
8EFD30
ENDCHAR
STARTCHAR ampersand
ENCODING 38
SWIDTH 578 0
DWIDTH 5 0
BBX 5 6 0 0
BITMAP
155300
C99E60
F997A0
F8C8A0
FECE90
8EFD30
ENDCHAR
STARTCHAR quotesingle
ENCODING 39
SWIDTH 424 0
DWIDTH 3 0
BBX 4 6 0 0
BITMAP
1520
C9F3
FFF6
FFF6
FFF6
8EC1
ENDCHAR
STARTCHAR parenleft
ENCODING 40
SWIDTH 483 0
DWIDTH 4 0
BBX 4 6 0 0
BITMAP
1540
C8CA
F9FD
F9FD
FACD
8EE6
ENDCHAR
STARTCHAR parenright
ENCODING 41
SWIDTH 483 0
DWIDTH 4 0
BBX 4 6 0 0
BITMAP
1540
CB9A
FF9D
FF9D
FBAD
8EE6
ENDCHAR
STARTCHAR asterisk
ENCODING 42
SWIDTH 428 0
DWIDTH 3 0
BBX 4 6 0 0
BITMAP
1520
C673
F897
FFF7
FFF6
8EC1
ENDCHAR
STARTCHAR plus
ENCODING 43
SWIDTH 428 0
DWIDTH 3 0
BBX 4 6 0 0
BITMAP
1420
B7C3
E8D7
FFF7
FFF6
8EC1
ENDCHAR
STARTCHAR comma
ENCODING 44
SWIDTH 428 0
DWIDTH 3 0
BBX 4 6 0 0
BITMAP
1520
CFF3
FFF7
FDF7
FBF6
8EC1
ENDCHAR
STARTCHAR hyphen
ENCODING 45
SWIDTH 428 0
DWIDTH 3 0
BBX 4 6 0 0
BITMAP
1520
CFF3
F9C7
FFF7
FFF6
8EC1
ENDCHAR
STARTCHAR period
ENCODING 46
SWIDTH 428 0
DWIDTH 3 0
BBX 4 6 0 0
BITMAP
1520
CFF3
FFF7
FDF7
FDF6
8EC1
ENDCHAR
STARTCHAR slash
ENCODING 47
SWIDTH 428 0
DWIDTH 3 0
BBX 4 6 0 0
BITMAP
1520
CBD3
F9F7
F9F7
FDF6
8EC1
ENDCHAR
STARTCHAR zero
ENCODING 48
SWIDTH 578 0
DWIDTH 5 0
BBX 5 6 0 0
BITMAP
155300
C89860
F9F9A0
F8C8A0
FDCE90
8EFD30
ENDCHAR
STARTCHAR one
ENCODING 49
SWIDTH 578 0
DWIDTH 5 0
BBX 5 6 0 0
BITMAP
155300
CD7F60
FF9FA0
FF9FA0
FFEF90
8EFD30
ENDCHAR
STARTCHAR two
ENCODING 50
SWIDTH 578 0
DWIDTH 5 0
BBX 5 6 0 0
BITMAP
155300
C99960
FB9AA0
F8CEA0
FDCD90
8EFD30
ENDCHAR
STARTCHAR three
ENCODING 51
SWIDTH 578 0
DWIDTH 5 0
BBX 5 6 0 0
BITMAP
155300
C89960
FE98A0
FBC8A0
FDCE90
8EFD30
ENDCHAR
STARTCHAR four
ENCODING 52
SWIDTH 578 0
DWIDTH 5 0
BBX 5 6 0 0
BITMAP
155300
C9CC60
F9CCA0
FC78A0
FFEE90
8EFD30
ENDCHAR
STARTCHAR five
ENCODING 53
SWIDTH 578 0
DWIDTH 5 0
BBX 5 6 0 0
BITMAP
155300
C79C60
F99AA0
FCC8A0
FECE90
8EFD30
ENDCHAR
STARTCHAR six
ENCODING 54
SWIDTH 578 0
DWIDTH 5 0
BBX 5 6 0 0
BITMAP
155300
C88C60
F799A0
F8C8A0
FECD90
8EFD30
ENDCHAR
STARTCHAR seven
ENCODING 55
SWIDTH 578 0
DWIDTH 5 0
BBX 5 6 0 0
BITMAP
155300
CD7B60
FF8FA0
FF8FA0
FFEF90
8EFD30
ENDCHAR
STARTCHAR eight
ENCODING 56
SWIDTH 578 0
DWIDTH 5 0
BBX 5 6 0 0
BITMAP
155300
C79860
F797A0
F8C8A0
FDCE90
8EFD30
ENDCHAR
STARTCHAR nine
ENCODING 57
SWIDTH 578 0
DWIDTH 5 0
BBX 5 6 0 0
BITMAP
155300
C79860
F797A0
FDC8A0
FDCE90
8EFD30
ENDCHAR
STARTCHAR colon
ENCODING 58
SWIDTH 428 0
DWIDTH 3 0
BBX 4 6 0 0
BITMAP
1520
CFF3
FCF7
FCF7
FDF6
8EC1
ENDCHAR
STARTCHAR semicolon
ENCODING 59
SWIDTH 428 0
DWIDTH 3 0
BBX 4 6 0 0
BITMAP
1520
CFF3
FCF7
FCF7
FBF6
8EC1
ENDCHAR
STARTCHAR less
ENCODING 60
SWIDTH 482 0
DWIDTH 4 0
BBX 4 7 0 0
BITMAP
0100
8FF6
FFDD
FAFD
FBED
DFDB
2882
ENDCHAR
STARTCHAR equal
ENCODING 61
SWIDTH 482 0
DWIDTH 4 0
BBX 4 7 0 0
BITMAP
0100
8FF6
FFFD
FCCD
FCCD
DFFB
3982
ENDCHAR
STARTCHAR greater
ENCODING 62
SWIDTH 482 0
DWIDTH 4 0
BBX 4 7 0 0
BITMAP
0100
8FF6
FCFD
FEAD
FDCD
DDFB
3982
ENDCHAR
STARTCHAR question
ENCODING 63
SWIDTH 578 0
DWIDTH 5 0
BBX 5 6 0 0
BITMAP
155300
CCAA60
FFBAA0
FFBFA0
FFEF90
8EFD30
ENDCHAR
STARTCHAR at
ENCODING 64
SWIDTH 578 0
DWIDTH 5 0
BBX 5 6 0 0
BITMAP
155300
A86860
BC8880
BAA690
E9CE90
8EFD30
ENDCHAR
STARTCHAR A
ENCODING 65
SWIDTH 578 0
DWIDTH 5 0
BBX 5 6 0 0
BITMAP
155300
C99A60
F7A8A0
F8F8A0
FDFD90
8EFD30
ENDCHAR
STARTCHAR B
ENCODING 66
SWIDTH 578 0
DWIDTH 5 0
BBX 5 6 0 0
BITMAP
155300
C69960
F699A0
F8C8A0
FCCE90
8EFD30
ENDCHAR
STARTCHAR C
ENCODING 67
SWIDTH 578 0
DWIDTH 5 0
BBX 5 6 0 0
BITMAP
155300
C79D60
F9FFA0
F8CEA0
FDCE90
8EFD30
ENDCHAR
STARTCHAR D
ENCODING 68
SWIDTH 578 0
DWIDTH 5 0
BBX 5 6 0 0
BITMAP
155300
C79860
F9F9A0
F8C8A0
FCCD90
8EFD30
ENDCHAR
STARTCHAR E
ENCODING 69
SWIDTH 578 0
DWIDTH 5 0
BBX 5 6 0 0
BITMAP
155300
C99C60
F99DA0
F9CEA0
FECD90
8EFD30
ENDCHAR
STARTCHAR F
ENCODING 70
SWIDTH 578 0
DWIDTH 5 0
BBX 5 6 0 0
BITMAP
155300
C89C60
F89DA0
F9FFA0
FEFF90
8EFD30
ENDCHAR
STARTCHAR G
ENCODING 71
SWIDTH 578 0
DWIDTH 5 0
BBX 5 6 0 0
BITMAP
155300
C89C60
F9DBA0
F8C8A0
FECD90
8EFD30
ENDCHAR
STARTCHAR H
ENCODING 72
SWIDTH 578 0
DWIDTH 5 0
BBX 5 6 0 0
BITMAP
155300
C9F960
F797A0
F9F9A0
FEFE90
8EFD30
ENDCHAR
STARTCHAR I
ENCODING 73
SWIDTH 578 0
DWIDTH 5 0
BBX 5 6 0 0
BITMAP
155300
CB5B60
FF9FA0
FD7DA0
FDCD90
8EFD30
ENDCHAR
STARTCHAR J
ENCODING 74
SWIDTH 578 0
DWIDTH 5 0
BBX 5 6 0 0
BITMAP
155300
CFAE60
FFAEA0
FE8EA0
FECF90
8EFD30
ENDCHAR
STARTCHAR K
ENCODING 75
SWIDTH 578 0
DWIDTH 5 0
BBX 5 6 0 0
BITMAP
155300
C9D860
F95FA0
F9CAA0
FEFE90
8EFD30
ENDCHAR
STARTCHAR L
ENCODING 76
SWIDTH 578 0
DWIDTH 5 0
BBX 5 6 0 0
BITMAP
155300
CBCF60
FBCFA0
FBAEA0
FECE90
8EFD30
ENDCHAR
STARTCHAR M
ENCODING 77
SWIDTH 578 0
DWIDTH 5 0
BBX 5 6 0 0
BITMAP
155300
C66760
F999A0
F9E9A0
FEFE90
8EFD30
ENDCHAR
STARTCHAR N
ENCODING 78
SWIDTH 578 0
DWIDTH 5 0
BBX 5 6 0 0
BITMAP
155300
C79860
F9F9A0
F9F9A0
FEFE90
8EFD30
ENDCHAR
STARTCHAR O
ENCODING 79
SWIDTH 578 0
DWIDTH 5 0
BBX 5 6 0 0
BITMAP
155300
C89860
F9F9A0
F8C8A0
FDCD90
8EFD30
ENDCHAR
STARTCHAR P
ENCODING 80
SWIDTH 578 0
DWIDTH 5 0
BBX 5 6 0 0
BITMAP
155300
C89860
F8A8A0
F9EFA0
FEFF90
8EFD30
ENDCHAR
STARTCHAR Q
ENCODING 81
SWIDTH 578 0
DWIDTH 5 0
BBX 5 6 0 0
BITMAP
155300
C89860
F9F9A0
F8A8A0
FDAB90
8EFD30
ENDCHAR
STARTCHAR R
ENCODING 82
SWIDTH 578 0
DWIDTH 5 0
BBX 5 6 0 0
BITMAP
155300
C79960
F79AA0
F9F9A0
FEFE90
8EFD30
ENDCHAR
STARTCHAR S
ENCODING 83
SWIDTH 578 0
DWIDTH 5 0
BBX 5 6 0 0
BITMAP
155300
C89C60
FA9BA0
FEC8A0
FDCE90
8EFD30
ENDCHAR
STARTCHAR T
ENCODING 84
SWIDTH 578 0
DWIDTH 5 0
BBX 5 6 0 0
BITMAP
155300
CB5B60
FF9FA0
FF9FA0
FFEF90
8EFD30
ENDCHAR
STARTCHAR U
ENCODING 85
SWIDTH 578 0
DWIDTH 5 0
BBX 5 6 0 0
BITMAP
155300
C9F960
F9F9A0
F8C8A0
FDCE90
8EFD30
ENDCHAR
STARTCHAR V
ENCODING 86
SWIDTH 578 0
DWIDTH 5 0
BBX 5 6 0 0
BITMAP
155300
C8F860
F9CAA0
FD5EA0
FFDF90
8EFD30
ENDCHAR
STARTCHAR W
ENCODING 87
SWIDTH 578 0
DWIDTH 5 0
BBX 5 6 0 0
BITMAP
155300
BA8860
F848A0
F568A0
FDED90
8EFD30
ENDCHAR
STARTCHAR X
ENCODING 88
SWIDTH 578 0
DWIDTH 5 0
BBX 5 6 0 0
BITMAP
155300
C9D960
FE3EA0
FABAA0
FEFE90
8EFD30
ENDCHAR
STARTCHAR Y
ENCODING 89
SWIDTH 578 0
DWIDTH 5 0
BBX 5 6 0 0
BITMAP
155300
C9E960
FE4EA0
FF8FA0
FFEF90
8EFD30
ENDCHAR
STARTCHAR Z
ENCODING 90
SWIDTH 578 0
DWIDTH 5 0
BBX 5 6 0 0
BITMAP
155300
CC6C60
FF8FA0
FAAEA0
FDCD90
8EFD30
ENDCHAR
STARTCHAR bracketleft
ENCODING 91
SWIDTH 484 0
DWIDTH 4 0
BBX 4 6 0 0
BITMAP
1440
CADA
FAED
FAED
FCDD
8EE6
ENDCHAR
STARTCHAR backslash
ENCODING 92
SWIDTH 516 0
DWIDTH 4 0
BBX 5 6 0 0
BITMAP
155100
CBDD00
FEAF20
FF9F20
FFDF20
8EF900
ENDCHAR
STARTCHAR bracketright
ENCODING 93
SWIDTH 484 0
DWIDTH 4 0
BBX 4 6 0 0
BITMAP
1440
CBBA
FCBD
FCBD
FCDD
8EE6
ENDCHAR
STARTCHAR asciicircum
ENCODING 94
SWIDTH 355 0
DWIDTH 3 0
BBX 3 4 0 1
BITMAP
4B20
B990
DEB0
1000
ENDCHAR
STARTCHAR underscore
ENCODING 95
SWIDTH 428 0
DWIDTH 3 0
BBX 4 6 0 0
BITMAP
1520
CFF3
FFF7
FFF7
E9B6
8EC1
ENDCHAR
STARTCHAR grave
ENCODING 96
SWIDTH 308 0
DWIDTH 2 0
BBX 3 3 0 0
BITMAP
7900
DA40
5C50
ENDCHAR
STARTCHAR a
ENCODING 97
SWIDTH 578 0
DWIDTH 5 0
BBX 5 6 0 0
BITMAP
155300
CB9A60
FA99A0
F7C9A0
FDCE90
8EFD30
ENDCHAR
STARTCHAR b
ENCODING 98
SWIDTH 578 0
DWIDTH 5 0
BBX 5 6 0 0
BITMAP
155300
C69960
F699A0
F8C8A0
FCCE90
8EFD30
ENDCHAR
STARTCHAR c
ENCODING 99
SWIDTH 578 0
DWIDTH 5 0
BBX 5 6 0 0
BITMAP
155300
C79D60
F9FFA0
F8CEA0
FDCE90
8EFD30
ENDCHAR
STARTCHAR d
ENCODING 100
SWIDTH 578 0
DWIDTH 5 0
BBX 5 6 0 0
BITMAP
155300
C79860
F9F9A0
F8C8A0
FCCD90
8EFD30
ENDCHAR
STARTCHAR e
ENCODING 101
SWIDTH 578 0
DWIDTH 5 0
BBX 5 6 0 0
BITMAP
155300
C79A60
F69BA0
F7AEA0
FEDF90
8EFD30
ENDCHAR
STARTCHAR f
ENCODING 102
SWIDTH 578 0
DWIDTH 5 0
BBX 5 6 0 0
BITMAP
155300
C89C60
F89DA0
F9FFA0
FEFF90
8EFD30
ENDCHAR
STARTCHAR g
ENCODING 103
SWIDTH 578 0
DWIDTH 5 0
BBX 5 6 0 0
BITMAP
155300
C89C60
F9DBA0
F8C8A0
FECD90
8EFD30
ENDCHAR
STARTCHAR h
ENCODING 104
SWIDTH 578 0
DWIDTH 5 0
BBX 5 6 0 0
BITMAP
155300
C9F960
F797A0
F9F9A0
FEFE90
8EFD30
ENDCHAR
STARTCHAR i
ENCODING 105
SWIDTH 578 0
DWIDTH 5 0
BBX 5 6 0 0
BITMAP
155300
CB5B60
FF9FA0
FD7DA0
FDCD90
8EFD30
ENDCHAR
STARTCHAR j
ENCODING 106
SWIDTH 578 0
DWIDTH 5 0
BBX 5 6 0 0
BITMAP
155300
CFAE60
FFAEA0
FE8EA0
FECF90
8EFD30
ENDCHAR
STARTCHAR k
ENCODING 107
SWIDTH 578 0
DWIDTH 5 0
BBX 5 6 0 0
BITMAP
155300
C9D860
F95FA0
F9CAA0
FEFE90
8EFD30
ENDCHAR
STARTCHAR l
ENCODING 108
SWIDTH 578 0
DWIDTH 5 0
BBX 5 6 0 0
BITMAP
155300
CBCF60
FBCFA0
FBAEA0
FECE90
8EFD30
ENDCHAR
STARTCHAR m
ENCODING 109
SWIDTH 578 0
DWIDTH 5 0
BBX 5 6 0 0
BITMAP
155300
C66760
F999A0
F9E9A0
FEFE90
8EFD30
ENDCHAR
STARTCHAR n
ENCODING 110
SWIDTH 578 0
DWIDTH 5 0
BBX 5 6 0 0
BITMAP
155300
C79860
F9F9A0
F9F9A0
FEFE90
8EFD30
ENDCHAR
STARTCHAR o
ENCODING 111
SWIDTH 578 0
DWIDTH 5 0
BBX 5 6 0 0
BITMAP
155300
C89860
F9F9A0
F8C8A0
FDCD90
8EFD30
ENDCHAR
STARTCHAR p
ENCODING 112
SWIDTH 578 0
DWIDTH 5 0
BBX 5 6 0 0
BITMAP
155300
C89860
F8A8A0
F9EFA0
FEFF90
8EFD30
ENDCHAR
STARTCHAR q
ENCODING 113
SWIDTH 578 0
DWIDTH 5 0
BBX 5 6 0 0
BITMAP
155300
C89860
F9F9A0
F8A8A0
FDAB90
8EFD30
ENDCHAR
STARTCHAR r
ENCODING 114
SWIDTH 578 0
DWIDTH 5 0
BBX 5 6 0 0
BITMAP
155300
C79960
F79AA0
F9F9A0
FEFE90
8EFD30
ENDCHAR
STARTCHAR s
ENCODING 115
SWIDTH 578 0
DWIDTH 5 0
BBX 5 6 0 0
BITMAP
155300
C89C60
FA9BA0
FEC8A0
FDCE90
8EFD30
ENDCHAR
STARTCHAR t
ENCODING 116
SWIDTH 578 0
DWIDTH 5 0
BBX 5 6 0 0
BITMAP
155300
CB5B60
FF9FA0
FF9FA0
FFEF90
8EFD30
ENDCHAR
STARTCHAR u
ENCODING 117
SWIDTH 578 0
DWIDTH 5 0
BBX 5 6 0 0
BITMAP
155300
C9F960
F9F9A0
F8C8A0
FDCE90
8EFD30
ENDCHAR
STARTCHAR v
ENCODING 118
SWIDTH 578 0
DWIDTH 5 0
BBX 5 6 0 0
BITMAP
155300
C8F860
F9CAA0
FD5EA0
FFDF90
8EFD30
ENDCHAR
STARTCHAR w
ENCODING 119
SWIDTH 578 0
DWIDTH 5 0
BBX 5 6 0 0
BITMAP
155300
BA8860
F848A0
F568A0
FDED90
8EFD30
ENDCHAR
STARTCHAR x
ENCODING 120
SWIDTH 578 0
DWIDTH 5 0
BBX 5 6 0 0
BITMAP
155300
C9D960
FE3EA0
FABAA0
FEFE90
8EFD30
ENDCHAR
STARTCHAR y
ENCODING 121
SWIDTH 578 0
DWIDTH 5 0
BBX 5 6 0 0
BITMAP
155300
C9E960
FE4EA0
FF8FA0
FFEF90
8EFD30
ENDCHAR
STARTCHAR z
ENCODING 122
SWIDTH 578 0
DWIDTH 5 0
BBX 5 6 0 0
BITMAP
155300
CC6C60
FF8FA0
FAAEA0
FDCD90
8EFD30
ENDCHAR
STARTCHAR braceleft
ENCODING 123
SWIDTH 484 0
DWIDTH 4 0
BBX 4 6 0 0
BITMAP
1440
C9CA
D7FD
F9FD
FBBD
8EE6
ENDCHAR
STARTCHAR bar
ENCODING 124
SWIDTH 484 0
DWIDTH 4 0
BBX 4 6 0 0
BITMAP
1440
CCDA
FCDD
FCDD
FDED
8EE6
ENDCHAR
STARTCHAR braceright
ENCODING 125
SWIDTH 484 0
DWIDTH 4 0
BBX 4 6 0 0
BITMAP
1440
CB9A
FF6C
FF9D
FBCD
8EE6
ENDCHAR
STARTCHAR asciitilde
ENCODING 126
SWIDTH 578 0
DWIDTH 5 0
BBX 5 6 0 0
BITMAP
155300
CFFE60
FA9CA0
FFFFA0
FFFF90
8EFD30
ENDCHAR
STARTCHAR uni00A0
ENCODING 160
SWIDTH 151 0
DWIDTH 1 0
BBX 1 1 0 0
BITMAP
00
ENDCHAR
STARTCHAR exclamdown
ENCODING 161
SWIDTH 424 0
DWIDTH 3 0
BBX 4 6 0 0
BITMAP
1520
CBF3
FAF6
FAF6
FEF6
8EC1
ENDCHAR
STARTCHAR cent
ENCODING 162
SWIDTH 578 0
DWIDTH 5 0
BBX 5 6 0 0
BITMAP
155300
CB6E60
F9AFA0
F97EA0
FFBF90
8EFD30
ENDCHAR
STARTCHAR sterling
ENCODING 163
SWIDTH 578 0
DWIDTH 5 0
BBX 5 6 0 0
BITMAP
155300
CB7C60
F99FA0
FABEA0
FECE90
8EFD30
ENDCHAR
STARTCHAR currency
ENCODING 164
SWIDTH 578 0
DWIDTH 5 0
BBX 5 6 0 0
BITMAP
155300
C9A960
FAFAA0
FBABA0
FFFF90
8EFD30
ENDCHAR
STARTCHAR yen
ENCODING 165
SWIDTH 578 0
DWIDTH 5 0
BBX 5 6 0 0
BITMAP
155300
C8DA60
FC5FA0
FB3EA0
FFEF90
8EFD30
ENDCHAR
STARTCHAR brokenbar
ENCODING 166
SWIDTH 484 0
DWIDTH 4 0
BBX 4 6 0 0
BITMAP
1540
CBDA
FDED
FBDD
FEED
8EE6
ENDCHAR
STARTCHAR section
ENCODING 167
SWIDTH 578 0
DWIDTH 5 0
BBX 5 6 0 0
BITMAP
155300
CAAD60
FA8EA0
FEABA0
FCAC90
8EFD30
ENDCHAR
STARTCHAR dieresis
ENCODING 168
SWIDTH 388 0
DWIDTH 3 0
BBX 4 3 0 0
BITMAP
1410
CDD1
ABA0
ENDCHAR
STARTCHAR copyright
ENCODING 169
SWIDTH 578 0
DWIDTH 5 0
BBX 5 6 0 0
BITMAP
155300
B97A60
BBFE70
CABC80
FBBC90
8EFD30
ENDCHAR
STARTCHAR ordfeminine
ENCODING 170
SWIDTH 578 0
DWIDTH 5 0
BBX 5 6 0 0
BITMAP
155300
CD9A60
FA99A0
FB9CA0
FFFF90
8EFD30
ENDCHAR
STARTCHAR guillemotleft
ENCODING 171
SWIDTH 578 0
DWIDTH 5 0
BBX 5 6 0 0
BITMAP
155300
CECD60
FAAFA0
FBAFA0
FFDE90
8EFD30
ENDCHAR
STARTCHAR uni00AD
ENCODING 173
SWIDTH 428 0
DWIDTH 3 0
BBX 4 6 0 0
BITMAP
1520
CFF3
F9C7
FFF7
FFF6
8EC1
ENDCHAR
STARTCHAR registered
ENCODING 174
SWIDTH 578 0
DWIDTH 5 0
BBX 5 6 0 0
BITMAP
155300
B96A60
BBAC70
CAE980
FBBC90
8EFD30
ENDCHAR
STARTCHAR macron
ENCODING 175
SWIDTH 428 0
DWIDTH 3 0
BBX 4 3 0 0
BITMAP
1430
CCE4
BCE3
ENDCHAR
STARTCHAR degree
ENCODING 176
SWIDTH 428 0
DWIDTH 3 0
BBX 4 6 0 0
BITMAP
1520
C7A3
FAD7
FFF7
FFF6
8EC1
ENDCHAR
STARTCHAR plusminus
ENCODING 177
SWIDTH 428 0
DWIDTH 3 0
BBX 4 6 0 0
BITMAP
1420
B7C3
E8D7
F9C7
FFF6
8EC1
ENDCHAR
STARTCHAR uni00B2
ENCODING 178
SWIDTH 578 0
DWIDTH 5 0
BBX 5 6 0 0
BITMAP
155300
CC5D60
F97FA0
FFDFA0
FFFF90
8EFD30
ENDCHAR
STARTCHAR uni00B3
ENCODING 179
SWIDTH 578 0
DWIDTH 5 0
BBX 5 6 0 0
BITMAP
155300
CD7960
FC89A0
FFEFA0
FFFF90
8EFD30
ENDCHAR
STARTCHAR acute
ENCODING 180
SWIDTH 308 0
DWIDTH 2 0
BBX 3 3 0 0
BITMAP
5A20
CA50
CB00
ENDCHAR
STARTCHAR uni00B5
ENCODING 181
SWIDTH 578 0
DWIDTH 5 0
BBX 5 6 0 0
BITMAP
155300
C9F960
F9F9A0
F7C8A0
F9CE90
8EFD30
ENDCHAR
STARTCHAR paragraph
ENCODING 182
SWIDTH 578 0
DWIDTH 5 0
BBX 5 6 0 0
BITMAP
155300
C64B60
F86BA0
FFBBA0
FFFF90
8EFD30
ENDCHAR
STARTCHAR periodcentered
ENCODING 183
SWIDTH 428 0
DWIDTH 3 0
BBX 4 6 0 0
BITMAP
1520
CFF3
FBF7
FFF7
FFF6
8EC1
ENDCHAR
STARTCHAR cedilla
ENCODING 184
SWIDTH 101 0
DWIDTH 1 0
BBX 1 2 0 -2
BITMAP
80
20
ENDCHAR
STARTCHAR uni00B9
ENCODING 185
SWIDTH 578 0
DWIDTH 5 0
BBX 5 6 0 0
BITMAP
155300
CD7F60
FF9FA0
FFEFA0
FFFF90
8EFD30
ENDCHAR
STARTCHAR ordmasculine
ENCODING 186
SWIDTH 578 0
DWIDTH 5 0
BBX 5 6 0 0
BITMAP
155300
C99860
F9F9A0
FB9AA0
FFFF90
8EFD30
ENDCHAR
STARTCHAR guillemotright
ENCODING 187
SWIDTH 578 0
DWIDTH 5 0
BBX 5 6 0 0
BITMAP
155300
CCCF60
FE9CA0
FDADA0
FEEF90
8EFD30
ENDCHAR
STARTCHAR onequarter
ENCODING 188
SWIDTH 578 0
DWIDTH 5 0
BBX 5 6 0 0
BITMAP
155300
989F60
F76BA0
F98570
FEFB90
8EFD30
ENDCHAR
STARTCHAR onehalf
ENCODING 189
SWIDTH 578 0
DWIDTH 5 0
BBX 5 6 0 0
BITMAP
155300
989F60
F77780
F99790
FEEC90
8EFD30
ENDCHAR
STARTCHAR threequarters
ENCODING 190
SWIDTH 578 0
DWIDTH 5 0
BBX 5 6 0 0
BITMAP
155300
989F60
F77860
F9B750
FEEC90
8EFD30
ENDCHAR
STARTCHAR questiondown
ENCODING 191
SWIDTH 578 0
DWIDTH 5 0
BBX 5 6 0 0
BITMAP
155300
CFBF60
FBAFA0
F9CCA0
FFDF90
8EFD30
ENDCHAR
STARTCHAR Agrave
ENCODING 192
SWIDTH 578 0
DWIDTH 5 0
BBX 5 8 0 0
BITMAP
197000
2CC100
1DF500
C99A60
F7A8A0
F8F8A0
FDFD90
8EFD30
ENDCHAR
STARTCHAR Aacute
ENCODING 193
SWIDTH 578 0
DWIDTH 5 0
BBX 5 8 0 0
BITMAP
019700
069C00
1BF700
C99A60
F7A8A0
F8F8A0
FDFD90
8EFD30
ENDCHAR
STARTCHAR Acircumflex
ENCODING 194
SWIDTH 578 0
DWIDTH 5 0
BBX 5 8 0 0
BITMAP
04C300
0C7A00
1FFD00
C99A60
F7A8A0
F8F8A0
FDFD90
8EFD30
ENDCHAR
STARTCHAR Atilde
ENCODING 195
SWIDTH 578 0
DWIDTH 5 0
BBX 5 8 0 0
BITMAP
058400
3FFE10
3FFF10
C99A60
F7A8A0
F8F8A0
FDFD90
8EFD30
ENDCHAR
STARTCHAR Adieresis
ENCODING 196
SWIDTH 578 0
DWIDTH 5 0
BBX 5 8 0 0
BITMAP
014100
1CDC00
1FFD00
C99A60
F7A8A0
F8F8A0
FDFD90
8EFD30
ENDCHAR
STARTCHAR Aring
ENCODING 197
SWIDTH 578 0
DWIDTH 5 0
BBX 5 8 0 0
BITMAP
036100
0C9B00
1FFF00
C99A60
F7A8A0
F8F8A0
FDFD90
8EFD30
ENDCHAR
STARTCHAR AE
ENCODING 198
SWIDTH 578 0
DWIDTH 5 0
BBX 5 6 0 0
BITMAP
155300
C85B60
F97BA0
F56DA0
FEDD90
8EFD30
ENDCHAR
STARTCHAR Ccedilla
ENCODING 199
SWIDTH 578 0
DWIDTH 5 0
BBX 5 6 0 0
BITMAP
155300
C79D60
F9FFA0
F8CEA0
FC7E90
8ECD30
ENDCHAR
STARTCHAR Egrave
ENCODING 200
SWIDTH 578 0
DWIDTH 5 0
BBX 5 8 0 0
BITMAP
098000
1DB200
1CF600
C99C60
F99DA0
F9CEA0
FECD90
8EFD30
ENDCHAR
STARTCHAR Eacute
ENCODING 201
SWIDTH 578 0
DWIDTH 5 0
BBX 5 8 0 0
BITMAP
009700
05AD00
1AF800
C99C60
F99DA0
F9CEA0
FECD90
8EFD30
ENDCHAR
STARTCHAR Ecircumflex
ENCODING 202
SWIDTH 578 0
DWIDTH 5 0
BBX 5 8 0 0
BITMAP
04C400
0B7B00
1FFE00
C99C60
F99DA0
F9CEA0
FECD90
8EFD30
ENDCHAR
STARTCHAR Edieresis
ENCODING 203
SWIDTH 578 0
DWIDTH 5 0
BBX 5 8 0 0
BITMAP
014100
0CDD00
1FFE00
C99C60
F99DA0
F9CEA0
FECD90
8EFD30
ENDCHAR
STARTCHAR Igrave
ENCODING 204
SWIDTH 578 0
DWIDTH 5 0
BBX 5 8 0 0
BITMAP
098000
1DB200
1CF700
CB5B60
FF9FA0
FD7DA0
FDCD90
8EFD30
ENDCHAR
STARTCHAR Iacute
ENCODING 205
SWIDTH 578 0
DWIDTH 5 0
BBX 5 8 0 0
BITMAP
009800
04AD00
19F900
CB5B60
FF9FA0
FD7DA0
FDCD90
8EFD30
ENDCHAR
STARTCHAR Icircumflex
ENCODING 206
SWIDTH 578 0
DWIDTH 5 0
BBX 5 8 0 0
BITMAP
03C400
0A7B00
1FFE00
CB5B60
FF9FA0
FD7DA0
FDCD90
8EFD30
ENDCHAR
STARTCHAR Idieresis
ENCODING 207
SWIDTH 578 0
DWIDTH 5 0
BBX 5 8 0 0
BITMAP
014100
0CDD10
1EFE00
CB5B60
FF9FA0
FD7DA0
FDCD90
8EFD30
ENDCHAR
STARTCHAR Eth
ENCODING 208
SWIDTH 578 0
DWIDTH 5 0
BBX 5 6 0 0
BITMAP
155300
C79860
F7F9A0
F8C8A0
FCCD90
8EFD30
ENDCHAR
STARTCHAR Ntilde
ENCODING 209
SWIDTH 578 0
DWIDTH 5 0
BBX 5 8 0 0
BITMAP
058300
4FFE00
4FFF00
C79860
F9F9A0
F9F9A0
FEFE90
8EFD30
ENDCHAR
STARTCHAR Ograve
ENCODING 210
SWIDTH 578 0
DWIDTH 5 0
BBX 5 8 0 0
BITMAP
198000
1DB200
1CF600
C89860
F9F9A0
F8C8A0
FDCD90
8EFD30
ENDCHAR
STARTCHAR Oacute
ENCODING 211
SWIDTH 578 0
DWIDTH 5 0
BBX 5 8 0 0
BITMAP
019700
059C00
1AF800
C89860
F9F9A0
F8C8A0
FDCD90
8EFD30
ENDCHAR
STARTCHAR Ocircumflex
ENCODING 212
SWIDTH 578 0
DWIDTH 5 0
BBX 5 8 0 0
BITMAP
04C300
0B7A00
1FFE00
C89860
F9F9A0
F8C8A0
FDCD90
8EFD30
ENDCHAR
STARTCHAR Otilde
ENCODING 213
SWIDTH 578 0
DWIDTH 5 0
BBX 5 8 0 0
BITMAP
048400
2FFE20
2FFF10
C89860
F9F9A0
F8C8A0
FDCD90
8EFD30
ENDCHAR
STARTCHAR Odieresis
ENCODING 214
SWIDTH 578 0
DWIDTH 5 0
BBX 5 8 0 0
BITMAP
014100
0CDC00
1FFE00
C89860
F9F9A0
F8C8A0
FDCD90
8EFD30
ENDCHAR
STARTCHAR multiply
ENCODING 215
SWIDTH 578 0
DWIDTH 5 0
BBX 5 6 0 0
BITMAP
155300
CFFF60
FE4EA0
FEEEA0
FFFF90
8EFD30
ENDCHAR
STARTCHAR Oslash
ENCODING 216
SWIDTH 578 0
DWIDTH 5 0
BBX 5 6 0 0
BITMAP
155300
C87760
F999A0
F5A8A0
FECE90
8EFD30
ENDCHAR
STARTCHAR Ugrave
ENCODING 217
SWIDTH 578 0
DWIDTH 5 0
BBX 5 8 0 0
BITMAP
098000
1DB200
1CF600
C9F960
F9F9A0
F8C8A0
FDCE90
8EFD30
ENDCHAR
STARTCHAR Uacute
ENCODING 218
SWIDTH 578 0
DWIDTH 5 0
BBX 5 8 0 0
BITMAP
009700
05AD00
1AF800
C9F960
F9F9A0
F8C8A0
FDCE90
8EFD30
ENDCHAR
STARTCHAR Ucircumflex
ENCODING 219
SWIDTH 578 0
DWIDTH 5 0
BBX 5 8 0 0
BITMAP
04C400
0B7B00
1FFE00
C9F960
F9F9A0
F8C8A0
FDCE90
8EFD30
ENDCHAR
STARTCHAR Udieresis
ENCODING 220
SWIDTH 578 0
DWIDTH 5 0
BBX 5 8 0 0
BITMAP
014100
0CDD00
1FFE00
C9F960
F9F9A0
F8C8A0
FDCE90
8EFD30
ENDCHAR
STARTCHAR Yacute
ENCODING 221
SWIDTH 578 0
DWIDTH 5 0
BBX 5 8 0 0
BITMAP
019700
059D00
1AF800
C9E960
FE4EA0
FF8FA0
FFEF90
8EFD30
ENDCHAR
STARTCHAR Thorn
ENCODING 222
SWIDTH 578 0
DWIDTH 5 0
BBX 5 6 0 0
BITMAP
145300
C89C60
F9E8A0
F8ADA0
FEFF90
8EFD30
ENDCHAR
STARTCHAR germandbls
ENCODING 223
SWIDTH 578 0
DWIDTH 5 0
BBX 5 6 0 0
BITMAP
155300
C89960
F9D9A0
F9D8A0
FECE90
8EFD30
ENDCHAR
STARTCHAR agrave
ENCODING 224
SWIDTH 578 0
DWIDTH 5 0
BBX 5 8 0 0
BITMAP
098000
1DB200
1CF600
CB9A60
FA99A0
F7C9A0
FDCE90
8EFD30
ENDCHAR
STARTCHAR aacute
ENCODING 225
SWIDTH 578 0
DWIDTH 5 0
BBX 5 8 0 0
BITMAP
019700
059D00
1AF800
CB9A60
FA99A0
F7C9A0
FDCE90
8EFD30
ENDCHAR
STARTCHAR acircumflex
ENCODING 226
SWIDTH 578 0
DWIDTH 5 0
BBX 5 8 0 0
BITMAP
04C300
0B7A00
1FFE00
CB9A60
FA99A0
F7C9A0
FDCE90
8EFD30
ENDCHAR
STARTCHAR atilde
ENCODING 227
SWIDTH 578 0
DWIDTH 5 0
BBX 5 8 0 0
BITMAP
048400
2FFE20
2FFF10
CB9A60
FA99A0
F7C9A0
FDCE90
8EFD30
ENDCHAR
STARTCHAR adieresis
ENCODING 228
SWIDTH 578 0
DWIDTH 5 0
BBX 5 8 0 0
BITMAP
014100
0CDC00
1FFE00
CB9A60
FA99A0
F7C9A0
FDCE90
8EFD30
ENDCHAR
STARTCHAR aring
ENCODING 229
SWIDTH 578 0
DWIDTH 5 0
BBX 5 8 0 0
BITMAP
026200
0C9B00
1FFF00
CB9A60
FA99A0
F7C9A0
FDCE90
8EFD30
ENDCHAR
STARTCHAR ae
ENCODING 230
SWIDTH 578 0
DWIDTH 5 0
BBX 5 6 0 0
BITMAP
155300
C85B60
F97BA0
F56DA0
FEDD90
8EFD30
ENDCHAR
STARTCHAR ccedilla
ENCODING 231
SWIDTH 578 0
DWIDTH 5 0
BBX 5 6 0 0
BITMAP
155300
C89D60
F9FFA0
F8CEA0
FB8E90
8DCD30
ENDCHAR
STARTCHAR egrave
ENCODING 232
SWIDTH 578 0
DWIDTH 5 0
BBX 5 8 0 0
BITMAP
198000
2DB100
1CF600
C79A60
F69BA0
F7AEA0
FEDF90
8EFD30
ENDCHAR
STARTCHAR eacute
ENCODING 233
SWIDTH 578 0
DWIDTH 5 0
BBX 5 8 0 0
BITMAP
019600
069B00
1BF700
C79A60
F69BA0
F7AEA0
FEDF90
8EFD30
ENDCHAR
STARTCHAR ecircumflex
ENCODING 234
SWIDTH 578 0
DWIDTH 5 0
BBX 5 8 0 0
BITMAP
06B200
0C8800
2FFC00
C79A60
F69BA0
F7AEA0
FEDF90
8EFD30
ENDCHAR
STARTCHAR edieresis
ENCODING 235
SWIDTH 578 0
DWIDTH 5 0
BBX 5 8 0 0
BITMAP
024000
2CDB00
2FFC00
C79A60
F69BA0
F7AEA0
FEDF90
8EFD30
ENDCHAR
STARTCHAR igrave
ENCODING 236
SWIDTH 578 0
DWIDTH 5 0
BBX 5 8 0 0
BITMAP
098000
1DB200
1CF600
CB5B60
FF9FA0
FD7DA0
FDCD90
8EFD30
ENDCHAR
STARTCHAR iacute
ENCODING 237
SWIDTH 578 0
DWIDTH 5 0
BBX 5 8 0 0
BITMAP
009700
05AD00
1AF800
CB5B60
FF9FA0
FD7DA0
FDCD90
8EFD30
ENDCHAR
STARTCHAR icircumflex
ENCODING 238
SWIDTH 578 0
DWIDTH 5 0
BBX 5 8 0 0
BITMAP
04C400
0B7B00
1FFE00
CB5B60
FF9FA0
FD7DA0
FDCD90
8EFD30
ENDCHAR
STARTCHAR idieresis
ENCODING 239
SWIDTH 578 0
DWIDTH 5 0
BBX 5 8 0 0
BITMAP
014100
0CDD00
1FFE00
CB5B60
FF9FA0
FD7DA0
FDCD90
8EFD30
ENDCHAR
STARTCHAR eth
ENCODING 240
SWIDTH 578 0
DWIDTH 5 0
BBX 5 6 0 0
BITMAP
155300
C79860
F7F9A0
F8C8A0
FCCD90
8EFD30
ENDCHAR
STARTCHAR ntilde
ENCODING 241
SWIDTH 578 0
DWIDTH 5 0
BBX 5 8 0 0
BITMAP
058300
4FFE00
4FFF00
C79860
F9F9A0
F9F9A0
FEFE90
8EFD30
ENDCHAR
STARTCHAR oacute
ENCODING 243
SWIDTH 578 0
DWIDTH 5 0
BBX 5 8 0 0
BITMAP
019600
069B00
1BF700
C89860
F9F9A0
F8C8A0
FDCD90
8EFD30
ENDCHAR
STARTCHAR ocircumflex
ENCODING 244
SWIDTH 578 0
DWIDTH 5 0
BBX 5 8 0 0
BITMAP
04C300
0B7A00
1FFE00
C89860
F9F9A0
F8C8A0
FDCD90
8EFD30
ENDCHAR
STARTCHAR otilde
ENCODING 245
SWIDTH 578 0
DWIDTH 5 0
BBX 5 8 0 0
BITMAP
048400
2FFE10
2FFF10
C89860
F9F9A0
F8C8A0
FDCD90
8EFD30
ENDCHAR
STARTCHAR odieresis
ENCODING 246
SWIDTH 578 0
DWIDTH 5 0
BBX 5 8 0 0
BITMAP
014100
0CDD00
1FFE00
C89860
F9F9A0
F8C8A0
FDCD90
8EFD30
ENDCHAR
STARTCHAR divide
ENCODING 247
SWIDTH 428 0
DWIDTH 3 0
BBX 4 6 0 0
BITMAP
1520
CBF3
F6C7
FEF7
FFF6
8EC1
ENDCHAR
STARTCHAR oslash
ENCODING 248
SWIDTH 578 0
DWIDTH 5 0
BBX 5 6 0 0
BITMAP
155300
C87760
F999A0
F5A8A0
FECE90
8EFD30
ENDCHAR
STARTCHAR ugrave
ENCODING 249
SWIDTH 578 0
DWIDTH 5 0
BBX 5 8 0 0
BITMAP
098000
1DB200
1CF600
C9F960
F9F9A0
F8C8A0
FDCE90
8EFD30
ENDCHAR
STARTCHAR uacute
ENCODING 250
SWIDTH 578 0
DWIDTH 5 0
BBX 5 8 0 0
BITMAP
009700
05AD00
1AF800
C9F960
F9F9A0
F8C8A0
FDCE90
8EFD30
ENDCHAR
STARTCHAR ucircumflex
ENCODING 251
SWIDTH 578 0
DWIDTH 5 0
BBX 5 8 0 0
BITMAP
04C400
0B7B00
1FFE00
C9F960
F9F9A0
F8C8A0
FDCE90
8EFD30
ENDCHAR
STARTCHAR udieresis
ENCODING 252
SWIDTH 578 0
DWIDTH 5 0
BBX 5 8 0 0
BITMAP
014100
0CDD00
1FFE00
C9F960
F9F9A0
F8C8A0
FDCE90
8EFD30
ENDCHAR
STARTCHAR yacute
ENCODING 253
SWIDTH 578 0
DWIDTH 5 0
BBX 5 8 0 0
BITMAP
019700
059D00
1AF800
C9E960
FE4EA0
FF8FA0
FFEF90
8EFD30
ENDCHAR
STARTCHAR thorn
ENCODING 254
SWIDTH 578 0
DWIDTH 5 0
BBX 5 6 0 0
BITMAP
145300
C89C60
F9E8A0
F8ADA0
FEFF90
8EFD30
ENDCHAR
STARTCHAR ydieresis
ENCODING 255
SWIDTH 578 0
DWIDTH 5 0
BBX 5 8 0 0
BITMAP
014100
0CDC00
1FFE00
C9E960
FE4EA0
FF8FA0
FFEF90
8EFD30
ENDCHAR
STARTCHAR Amacron
ENCODING 256
SWIDTH 578 0
DWIDTH 5 0
BBX 5 8 0 0
BITMAP
025100
2DCE10
2FFF00
C99A60
F7A8A0
F8F8A0
FDFD90
8EFD30
ENDCHAR
STARTCHAR amacron
ENCODING 257
SWIDTH 578 0
DWIDTH 5 0
BBX 5 8 0 0
BITMAP
025200
1DCE20
2FFF10
CB9A60
FA99A0
F7C9A0
FDCE90
8EFD30
ENDCHAR
STARTCHAR Abreve
ENCODING 258
SWIDTH 578 0
DWIDTH 5 0
BBX 5 8 0 0
BITMAP
025100
2EEE10
2FFF00
C99A60
F7A8A0
F8F8A0
FDFD90
8EFD30
ENDCHAR
STARTCHAR abreve
ENCODING 259
SWIDTH 578 0
DWIDTH 5 0
BBX 5 8 0 0
BITMAP
025200
1EEE20
2FFF10
CB9A60
FA99A0
F7C9A0
FDCE90
8EFD30
ENDCHAR
STARTCHAR Aogonek
ENCODING 260
SWIDTH 578 0
DWIDTH 5 0
BBX 5 6 0 0
BITMAP
155300
C99A60
F7A8A0
F8F8A0
FDEA90
8EF930
ENDCHAR
STARTCHAR aogonek
ENCODING 261
SWIDTH 578 0
DWIDTH 5 0
BBX 5 6 0 0
BITMAP
155300
CB9A60
FA99A0
F7C9A0
FD7E90
8EBD30
ENDCHAR
STARTCHAR Cacute
ENCODING 262
SWIDTH 578 0
DWIDTH 5 0
BBX 5 8 0 0
BITMAP
009800
04AD00
19F900
C79D60
F9FFA0
F8CEA0
FDCE90
8EFD30
ENDCHAR
STARTCHAR cacute
ENCODING 263
SWIDTH 578 0
DWIDTH 5 0
BBX 5 8 0 0
BITMAP
009700
05AD00
1AF800
C79D60
F9FFA0
F8CEA0
FDCE90
8EFD30
ENDCHAR
STARTCHAR Ccircumflex
ENCODING 264
SWIDTH 578 0
DWIDTH 5 0
BBX 5 8 0 0
BITMAP
04C300
0B7A00
1FFD00
C79D60
F9FFA0
F8CEA0
FDCE90
8EFD30
ENDCHAR
STARTCHAR ccircumflex
ENCODING 265
SWIDTH 578 0
DWIDTH 5 0
BBX 5 8 0 0
BITMAP
04C300
0C7A00
1FFD00
C79D60
F9FFA0
F8CEA0
FDCE90
8EFD30
ENDCHAR
STARTCHAR Cdotaccent
ENCODING 266
SWIDTH 578 0
DWIDTH 5 0
BBX 5 8 0 0
BITMAP
034100
5FDC00
6FFF00
C79D60
F9FFA0
F8CEA0
FDCE90
8EFD30
ENDCHAR
STARTCHAR cdotaccent
ENCODING 267
SWIDTH 578 0
DWIDTH 5 0
BBX 5 8 0 0
BITMAP
024100
4FDD00
5FFF00
C79D60
F9FFA0
F8CEA0
FDCE90
8EFD30
ENDCHAR
STARTCHAR Ccaron
ENCODING 268
SWIDTH 578 0
DWIDTH 5 0
BBX 5 8 0 0
BITMAP
088500
2CAA00
1FF900
C79D60
F9FFA0
F8CEA0
FDCE90
8EFD30
ENDCHAR
STARTCHAR ccaron
ENCODING 269
SWIDTH 578 0
DWIDTH 5 0
BBX 5 8 0 0
BITMAP
088500
1C9B00
1FF900
C79D60
F9FFA0
F8CEA0
FDCE90
8EFD30
ENDCHAR
STARTCHAR Dcaron
ENCODING 270
SWIDTH 578 0
DWIDTH 5 0
BBX 5 8 0 0
BITMAP
088500
1CAA00
1FF900
C79860
F9F9A0
F8C8A0
FCCD90
8EFD30
ENDCHAR
STARTCHAR dcaron
ENCODING 271
SWIDTH 578 0
DWIDTH 5 0
BBX 5 6 0 0
BITMAP
155300
B67660
F9CCA0
F8ACA0
FCCF90
8EFD30
ENDCHAR
STARTCHAR Dcroat
ENCODING 272
SWIDTH 578 0
DWIDTH 5 0
BBX 5 6 0 0
BITMAP
155300
C79860
E5D9A0
F8C8A0
FCCD90
8EFD30
ENDCHAR
STARTCHAR dcroat
ENCODING 273
SWIDTH 578 0
DWIDTH 5 0
BBX 5 6 0 0
BITMAP
155300
C79860
E5D9A0
F8C8A0
FCCD90
8EFD30
ENDCHAR
STARTCHAR Emacron
ENCODING 274
SWIDTH 578 0
DWIDTH 5 0
BBX 5 8 0 0
BITMAP
025200
1DCE20
2FFF10
C99C60
F99DA0
F9CEA0
FECD90
8EFD30
ENDCHAR
STARTCHAR emacron
ENCODING 275
SWIDTH 578 0
DWIDTH 5 0
BBX 5 8 0 0
BITMAP
024100
4DCD00
4FFF00
C79A60
F69BA0
F7AEA0
FEDF90
8EFD30
ENDCHAR
STARTCHAR Ebreve
ENCODING 276
SWIDTH 578 0
DWIDTH 5 0
BBX 5 8 0 0
BITMAP
025200
1EEE20
2FFF10
C99C60
F99DA0
F9CEA0
FECD90
8EFD30
ENDCHAR
STARTCHAR ebreve
ENCODING 277
SWIDTH 578 0
DWIDTH 5 0
BBX 5 8 0 0
BITMAP
024100
4EED00
4FFF00
C79A60
F69BA0
F7AEA0
FEDF90
8EFD30
ENDCHAR
STARTCHAR Edotaccent
ENCODING 278
SWIDTH 578 0
DWIDTH 5 0
BBX 5 8 0 0
BITMAP
025200
1EDE20
2FFF20
C99C60
F99DA0
F9CEA0
FECD90
8EFD30
ENDCHAR
STARTCHAR edotaccent
ENCODING 279
SWIDTH 578 0
DWIDTH 5 0
BBX 5 8 0 0
BITMAP
024100
4FDD00
5FFF00
C79A60
F69BA0
F7AEA0
FEDF90
8EFD30
ENDCHAR
STARTCHAR Eogonek
ENCODING 280
SWIDTH 578 0
DWIDTH 5 0
BBX 5 6 0 0
BITMAP
155300
C99C60
F99DA0
F9CEA0
FE9B90
8EEA30
ENDCHAR
STARTCHAR eogonek
ENCODING 281
SWIDTH 578 0
DWIDTH 5 0
BBX 5 6 0 0
BITMAP
155300
C79A60
F69BA0
F7AEA0
FE8F90
8EBD30
ENDCHAR
STARTCHAR Ecaron
ENCODING 282
SWIDTH 578 0
DWIDTH 5 0
BBX 5 8 0 0
BITMAP
068700
0C8D00
1CFC00
C99C60
F99DA0
F9CEA0
FECD90
8EFD30
ENDCHAR
STARTCHAR ecaron
ENCODING 283
SWIDTH 578 0
DWIDTH 5 0
BBX 5 8 0 0
BITMAP
088500
1CAA00
1FF900
C79A60
F69BA0
F7AEA0
FEDF90
8EFD30
ENDCHAR
STARTCHAR Gcircumflex
ENCODING 284
SWIDTH 578 0
DWIDTH 5 0
BBX 5 8 0 0
BITMAP
05C200
0C8900
1FFD00
C89C60
F9DBA0
F8C8A0
FECD90
8EFD30
ENDCHAR
STARTCHAR gcircumflex
ENCODING 285
SWIDTH 578 0
DWIDTH 5 0
BBX 5 8 0 0
BITMAP
05C200
0C8900
1FFD00
C89C60
F9DBA0
F8C8A0
FECD90
8EFD30
ENDCHAR
STARTCHAR Gbreve
ENCODING 286
SWIDTH 578 0
DWIDTH 5 0
BBX 5 8 0 0
BITMAP
025100
3EEE10
3FFF00
C89C60
F9DBA0
F8C8A0
FECD90
8EFD30
ENDCHAR
STARTCHAR gbreve
ENCODING 287
SWIDTH 578 0
DWIDTH 5 0
BBX 5 8 0 0
BITMAP
024100
4EED00
4FFF00
C89C60
F9DBA0
F8C8A0
FECD90
8EFD30
ENDCHAR
STARTCHAR Gdotaccent
ENCODING 288
SWIDTH 578 0
DWIDTH 5 0
BBX 5 8 0 0
BITMAP
024100
4FDD00
5FFF00
C89C60
F9DBA0
F8C8A0
FECD90
8EFD30
ENDCHAR
STARTCHAR gdotaccent
ENCODING 289
SWIDTH 578 0
DWIDTH 5 0
BBX 5 8 0 0
BITMAP
024100
4FDD00
5FFF00
C89C60
F9DBA0
F8C8A0
FECD90
8EFD30
ENDCHAR
STARTCHAR Gcommaaccent
ENCODING 290
SWIDTH 578 0
DWIDTH 5 0
BBX 5 6 0 0
BITMAP
155300
C89C60
F9DBA0
F8C8A0
FE7D90
8EDD30
ENDCHAR
STARTCHAR gcommaaccent
ENCODING 291
SWIDTH 578 0
DWIDTH 5 0
BBX 5 6 0 0
BITMAP
155300
C89C60
F9DBA0
F8C8A0
FE7D90
8EDD30
ENDCHAR
STARTCHAR Hcircumflex
ENCODING 292
SWIDTH 578 0
DWIDTH 5 0
BBX 5 8 0 0
BITMAP
05C300
0C7900
1FFD00
C9F960
F797A0
F9F9A0
FEFE90
8EFD30
ENDCHAR
STARTCHAR hcircumflex
ENCODING 293
SWIDTH 578 0
DWIDTH 5 0
BBX 5 8 0 0
BITMAP
04C300
0B7A00
1FFD00
C9F960
F797A0
F9F9A0
FEFE90
8EFD30
ENDCHAR
STARTCHAR Hbar
ENCODING 294
SWIDTH 578 0
DWIDTH 5 0
BBX 5 8 0 0
BITMAP
025100
3DCE10
3FFF00
C9F960
F797A0
F9F9A0
FEFE90
8EFD30
ENDCHAR
STARTCHAR hbar
ENCODING 295
SWIDTH 578 0
DWIDTH 5 0
BBX 5 6 0 0
BITMAP
155300
C6A660
F797A0
F9F9A0
FEFE90
8EFD30
ENDCHAR
STARTCHAR Itilde
ENCODING 296
SWIDTH 578 0
DWIDTH 5 0
BBX 5 8 0 0
BITMAP
048400
1FFE20
2FFF20
CB5B60
FF9FA0
FD7DA0
FDCD90
8EFD30
ENDCHAR
STARTCHAR itilde
ENCODING 297
SWIDTH 578 0
DWIDTH 5 0
BBX 5 8 0 0
BITMAP
048400
2FFE20
2FFF10
CB5B60
FF9FA0
FD7DA0
FDCD90
8EFD30
ENDCHAR
STARTCHAR Imacron
ENCODING 298
SWIDTH 578 0
DWIDTH 5 0
BBX 5 8 0 0
BITMAP
025200
2DCE10
2FFF10
CB5B60
FF9FA0
FD7DA0
FDCD90
8EFD30
ENDCHAR
STARTCHAR imacron
ENCODING 299
SWIDTH 578 0
DWIDTH 5 0
BBX 5 8 0 0
BITMAP
025200
2DCE10
2FFF10
CB5B60
FF9FA0
FD7DA0
FDCD90
8EFD30
ENDCHAR
STARTCHAR Ibreve
ENCODING 300
SWIDTH 578 0
DWIDTH 5 0
BBX 5 8 0 0
BITMAP
015200
1EEE20
1FFF10
CB5B60
FF9FA0
FD7DA0
FDCD90
8EFD30
ENDCHAR
STARTCHAR ibreve
ENCODING 301
SWIDTH 578 0
DWIDTH 5 0
BBX 5 8 0 0
BITMAP
025200
1EEE20
2FFF10
CB5B60
FF9FA0
FD7DA0
FDCD90
8EFD30
ENDCHAR
STARTCHAR Iogonek
ENCODING 302
SWIDTH 578 0
DWIDTH 5 0
BBX 5 6 0 0
BITMAP
155300
CB5B60
FF9FA0
FD7DA0
FDA990
8EEA30
ENDCHAR
STARTCHAR iogonek
ENCODING 303
SWIDTH 578 0
DWIDTH 5 0
BBX 5 6 0 0
BITMAP
155300
CB5B60
FF9FA0
FD7DA0
FDA990
8EE930
ENDCHAR
STARTCHAR Idotaccent
ENCODING 304
SWIDTH 578 0
DWIDTH 5 0
BBX 5 8 0 0
BITMAP
025100
3FDE10
4FFF00
CB5B60
FF9FA0
FD7DA0
FDCD90
8EFD30
ENDCHAR
STARTCHAR dotlessi
ENCODING 305
SWIDTH 578 0
DWIDTH 5 0
BBX 5 6 0 0
BITMAP
155300
CB5B60
FF9FA0
FD7DA0
FDCD90
8EFD30
ENDCHAR
STARTCHAR IJ
ENCODING 306
SWIDTH 578 0
DWIDTH 5 0
BBX 5 6 0 0
BITMAP
155300
A5D960
F9F9A0
E7D7A0
ECCD90
8EFD30
ENDCHAR
STARTCHAR ij
ENCODING 307
SWIDTH 578 0
DWIDTH 5 0
BBX 5 6 0 0
BITMAP
155300
A5D960
F9F9A0
E7D7A0
ECCD90
8EFD30
ENDCHAR
STARTCHAR Jcircumflex
ENCODING 308
SWIDTH 578 0
DWIDTH 5 0
BBX 5 8 0 0
BITMAP
04C300
0B7A00
1FFE00
CFAE60
FFAEA0
FE8EA0
FECF90
8EFD30
ENDCHAR
STARTCHAR jcircumflex
ENCODING 309
SWIDTH 578 0
DWIDTH 5 0
BBX 5 8 0 0
BITMAP
04C300
0B7A00
1FFE00
CFAE60
FFAEA0
FE8EA0
FECF90
8EFD30
ENDCHAR
STARTCHAR Kcommaaccent
ENCODING 310
SWIDTH 578 0
DWIDTH 5 0
BBX 5 6 0 0
BITMAP
155300
C9D860
F95FA0
F9CAA0
FEBE90
8EDD30
ENDCHAR
STARTCHAR kcommaaccent
ENCODING 311
SWIDTH 578 0
DWIDTH 5 0
BBX 5 6 0 0
BITMAP
155300
C9D860
F95FA0
F9CAA0
FEBE90
8EDD30
ENDCHAR
STARTCHAR kgreenlandic
ENCODING 312
SWIDTH 578 0
DWIDTH 5 0
BBX 5 6 0 0
BITMAP
155300
C9D860
F95FA0
F9CAA0
FEFE90
8EFD30
ENDCHAR
STARTCHAR Lacute
ENCODING 313
SWIDTH 578 0
DWIDTH 5 0
BBX 5 8 0 0
BITMAP
04A300
0B9600
1FF400
CBCF60
FBCFA0
FBAEA0
FECE90
8EFD30
ENDCHAR
STARTCHAR lacute
ENCODING 314
SWIDTH 578 0
DWIDTH 5 0
BBX 5 8 0 0
BITMAP
04A300
0B9600
1FF400
CBCF60
FBCFA0
FBAEA0
FECE90
8EFD30
ENDCHAR
STARTCHAR Lcommaaccent
ENCODING 315
SWIDTH 578 0
DWIDTH 5 0
BBX 5 6 0 0
BITMAP
155300
CBCF60
FBCFA0
FBAEA0
FE7E90
8EDD30
ENDCHAR
STARTCHAR lcommaaccent
ENCODING 316
SWIDTH 578 0
DWIDTH 5 0
BBX 5 6 0 0
BITMAP
155300
CBCF60
FBCFA0
FBAEA0
FE7E90
8EDD30
ENDCHAR
STARTCHAR Lcaron
ENCODING 317
SWIDTH 578 0
DWIDTH 5 0
BBX 5 6 0 0
BITMAP
155300
CB9C60
FBCFA0
FBAEA0
FECE90
8EFD30
ENDCHAR
STARTCHAR lcaron
ENCODING 318
SWIDTH 578 0
DWIDTH 5 0
BBX 5 6 0 0
BITMAP
155300
CB9C60
FBCFA0
FBAEA0
FECE90
8EFD30
ENDCHAR
STARTCHAR Ldot
ENCODING 319
SWIDTH 578 0
DWIDTH 5 0
BBX 5 6 0 0
BITMAP
155300
CBCF60
FB9FA0
FBAEA0
FECE90
8EFD30
ENDCHAR
STARTCHAR ldot
ENCODING 320
SWIDTH 578 0
DWIDTH 5 0
BBX 5 6 0 0
BITMAP
155300
CBCF60
FB9FA0
FBAEA0
FECE90
8EFD30
ENDCHAR
STARTCHAR Lslash
ENCODING 321
SWIDTH 578 0
DWIDTH 5 0
BBX 5 6 0 0
BITMAP
155300
CBCF60
F9BFA0
FBAEA0
FECE90
8EFD30
ENDCHAR
STARTCHAR lslash
ENCODING 322
SWIDTH 578 0
DWIDTH 5 0
BBX 5 6 0 0
BITMAP
155300
CBCF60
F9BFA0
FBAEA0
FECE90
8EFD30
ENDCHAR
STARTCHAR Nacute
ENCODING 323
SWIDTH 578 0
DWIDTH 5 0
BBX 5 8 0 0
BITMAP
019600
069B00
1BF700
C79860
F9F9A0
F9F9A0
FEFE90
8EFD30
ENDCHAR
STARTCHAR nacute
ENCODING 324
SWIDTH 578 0
DWIDTH 5 0
BBX 5 8 0 0
BITMAP
019600
069B00
1BF700
C79860
F9F9A0
F9F9A0
FEFE90
8EFD30
ENDCHAR
STARTCHAR Ncommaaccent
ENCODING 325
SWIDTH 578 0
DWIDTH 5 0
BBX 5 6 0 0
BITMAP
155300
C79860
F9F9A0
F9F9A0
FEBE90
8EDD30
ENDCHAR
STARTCHAR ncommaaccent
ENCODING 326
SWIDTH 578 0
DWIDTH 5 0
BBX 5 6 0 0
BITMAP
155300
C79860
F9F9A0
F9F9A0
FEBE90
8EDD30
ENDCHAR
STARTCHAR Ncaron
ENCODING 327
SWIDTH 578 0
DWIDTH 5 0
BBX 5 8 0 0
BITMAP
088500
1CAA00
1FF900
C79860
F9F9A0
F9F9A0
FEFE90
8EFD30
ENDCHAR
STARTCHAR ncaron
ENCODING 328
SWIDTH 578 0
DWIDTH 5 0
BBX 5 8 0 0
BITMAP
088500
1CAA00
1FF900
C79860
F9F9A0
F9F9A0
FEFE90
8EFD30
ENDCHAR
STARTCHAR napostrophe
ENCODING 329
SWIDTH 578 0
DWIDTH 5 0
BBX 5 6 0 0
BITMAP
155300
779860
E9F9A0
F9F9A0
FEFE90
8EFD30
ENDCHAR
STARTCHAR Eng
ENCODING 330
SWIDTH 578 0
DWIDTH 5 0
BBX 5 6 0 0
BITMAP
155300
C79860
F9F9A0
F9F9A0
FEF890
8EBB30
ENDCHAR
STARTCHAR eng
ENCODING 331
SWIDTH 578 0
DWIDTH 5 0
BBX 5 6 0 0
BITMAP
155300
C79860
F9F9A0
F9F9A0
FEF890
8EBB30
ENDCHAR
STARTCHAR Omacron
ENCODING 332
SWIDTH 578 0
DWIDTH 5 0
BBX 5 8 0 0
BITMAP
025200
2DCE10
2FFF10
C89860
F9F9A0
F8C8A0
FDCD90
8EFD30
ENDCHAR
STARTCHAR omacron
ENCODING 333
SWIDTH 578 0
DWIDTH 5 0
BBX 5 8 0 0
BITMAP
025200
2DCE10
2FFF10
C89860
F9F9A0
F8C8A0
FDCD90
8EFD30
ENDCHAR
STARTCHAR Obreve
ENCODING 334
SWIDTH 578 0
DWIDTH 5 0
BBX 5 8 0 0
BITMAP
025200
2EEE10
2FFF10
C89860
F9F9A0
F8C8A0
FDCD90
8EFD30
ENDCHAR
STARTCHAR obreve
ENCODING 335
SWIDTH 578 0
DWIDTH 5 0
BBX 5 8 0 0
BITMAP
025200
2EEE10
2FFF10
C89860
F9F9A0
F8C8A0
FDCD90
8EFD30
ENDCHAR
STARTCHAR Ohungarumlaut
ENCODING 336
SWIDTH 578 0
DWIDTH 5 0
BBX 5 8 0 0
BITMAP
00AB30
06BA70
1EFE10
C89860
F9F9A0
F8C8A0
FDCD90
8EFD30
ENDCHAR
STARTCHAR ohungarumlaut
ENCODING 337
SWIDTH 578 0
DWIDTH 5 0
BBX 5 8 0 0
BITMAP
00AB30
06BA70
1EFE10
C89860
F9F9A0
F8C8A0
FDCD90
8EFD30
ENDCHAR
STARTCHAR OE
ENCODING 338
SWIDTH 578 0
DWIDTH 5 0
BBX 5 6 0 0
BITMAP
155300
B75A60
DB7BA0
E87DA0
FCCC90
8EFD30
ENDCHAR
STARTCHAR oe
ENCODING 339
SWIDTH 578 0
DWIDTH 5 0
BBX 5 6 0 0
BITMAP
155300
B75A60
DB7BA0
E87DA0
FCCC90
8EFD30
ENDCHAR
STARTCHAR Racute
ENCODING 340
SWIDTH 578 0
DWIDTH 5 0
BBX 5 8 0 0
BITMAP
019600
069B00
1BF700
C79960
F79AA0
F9F9A0
FEFE90
8EFD30
ENDCHAR
STARTCHAR racute
ENCODING 341
SWIDTH 578 0
DWIDTH 5 0
BBX 5 8 0 0
BITMAP
019600
069B00
1BF700
C79960
F79AA0
F9F9A0
FEFE90
8EFD30
ENDCHAR
STARTCHAR Rcommaaccent
ENCODING 342
SWIDTH 578 0
DWIDTH 5 0
BBX 5 6 0 0
BITMAP
155300
C79960
F79AA0
F9F9A0
FEBE90
8EDD30
ENDCHAR
STARTCHAR rcommaaccent
ENCODING 343
SWIDTH 578 0
DWIDTH 5 0
BBX 5 6 0 0
BITMAP
155300
C79960
F79AA0
F9F9A0
FEBE90
8EDD30
ENDCHAR
STARTCHAR Rcaron
ENCODING 344
SWIDTH 578 0
DWIDTH 5 0
BBX 5 8 0 0
BITMAP
088500
1CAA00
1FF900
C79960
F79AA0
F9F9A0
FEFE90
8EFD30
ENDCHAR
STARTCHAR rcaron
ENCODING 345
SWIDTH 578 0
DWIDTH 5 0
BBX 5 8 0 0
BITMAP
088500
1CAA00
1FF900
C79960
F79AA0
F9F9A0
FEFE90
8EFD30
ENDCHAR
STARTCHAR Sacute
ENCODING 346
SWIDTH 578 0
DWIDTH 5 0
BBX 5 8 0 0
BITMAP
009800
04AD00
19F900
C89C60
FA9BA0
FEC8A0
FDCE90
8EFD30
ENDCHAR
STARTCHAR sacute
ENCODING 347
SWIDTH 578 0
DWIDTH 5 0
BBX 5 8 0 0
BITMAP
009800
04AD00
19F900
C89C60
FA9BA0
FEC8A0
FDCE90
8EFD30
ENDCHAR
STARTCHAR Scircumflex
ENCODING 348
SWIDTH 578 0
DWIDTH 5 0
BBX 5 8 0 0
BITMAP
03C400
0A7B00
1FFE00
C89C60
FA9BA0
FEC8A0
FDCE90
8EFD30
ENDCHAR
STARTCHAR scircumflex
ENCODING 349
SWIDTH 578 0
DWIDTH 5 0
BBX 5 8 0 0
BITMAP
03C400
0A7B00
1FFE00
C89C60
FA9BA0
FEC8A0
FDCE90
8EFD30
ENDCHAR
STARTCHAR Scedilla
ENCODING 350
SWIDTH 578 0
DWIDTH 5 0
BBX 5 6 0 0
BITMAP
155300
C89C60
FA9BA0
FEC8A0
FD6E90
8EBD30
ENDCHAR
STARTCHAR scedilla
ENCODING 351
SWIDTH 578 0
DWIDTH 5 0
BBX 5 6 0 0
BITMAP
155300
C89C60
FA9BA0
FEC8A0
FD6E90
8EBD30
ENDCHAR
STARTCHAR Scaron
ENCODING 352
SWIDTH 578 0
DWIDTH 5 0
BBX 5 8 0 0
BITMAP
068700
0C8D00
1CFC00
C89C60
FA9BA0
FEC8A0
FDCE90
8EFD30
ENDCHAR
STARTCHAR scaron
ENCODING 353
SWIDTH 578 0
DWIDTH 5 0
BBX 5 8 0 0
BITMAP
068700
0C8D00
1CFC00
C89C60
FA9BA0
FEC8A0
FDCE90
8EFD30
ENDCHAR
STARTCHAR Tcommaaccent
ENCODING 354
SWIDTH 578 0
DWIDTH 5 0
BBX 5 6 0 0
BITMAP
155300
CB5B60
FF9FA0
FF9FA0
FF9F90
8EDD30
ENDCHAR
STARTCHAR tcommaaccent
ENCODING 355
SWIDTH 578 0
DWIDTH 5 0
BBX 5 6 0 0
BITMAP
155300
CB5B60
FF9FA0
FF9FA0
FF9F90
8EDD30
ENDCHAR
STARTCHAR Tcaron
ENCODING 356
SWIDTH 578 0
DWIDTH 5 0
BBX 5 8 0 0
BITMAP
078700
0D8C00
1DFB00
CB5B60
FF9FA0
FF9FA0
FFEF90
8EFD30
ENDCHAR
STARTCHAR tcaron
ENCODING 357
SWIDTH 578 0
DWIDTH 5 0
BBX 5 6 0 0
BITMAP
155300
CB5860
FF9BA0
FF9FA0
FFEF90
8EFD30
ENDCHAR
STARTCHAR Tbar
ENCODING 358
SWIDTH 578 0
DWIDTH 5 0
BBX 5 6 0 0
BITMAP
155300
CB5B60
FE6EA0
FF9FA0
FFEF90
8EFD30
ENDCHAR
STARTCHAR tbar
ENCODING 359
SWIDTH 578 0
DWIDTH 5 0
BBX 5 6 0 0
BITMAP
155300
CB5B60
FE6EA0
FF9FA0
FFEF90
8EFD30
ENDCHAR
STARTCHAR Utilde
ENCODING 360
SWIDTH 578 0
DWIDTH 5 0
BBX 5 8 0 0
BITMAP
048400
2FFE20
2FFF10
C9F960
F9F9A0
F8C8A0
FDCE90
8EFD30
ENDCHAR
STARTCHAR utilde
ENCODING 361
SWIDTH 578 0
DWIDTH 5 0
BBX 5 8 0 0
BITMAP
048400
2FFE20
2FFF10
C9F960
F9F9A0
F8C8A0
FDCE90
8EFD30
ENDCHAR
STARTCHAR Umacron
ENCODING 362
SWIDTH 578 0
DWIDTH 5 0
BBX 5 8 0 0
BITMAP
025200
1DCE20
2FFF10
C9F960
F9F9A0
F8C8A0
FDCE90
8EFD30
ENDCHAR
STARTCHAR umacron
ENCODING 363
SWIDTH 578 0
DWIDTH 5 0
BBX 5 8 0 0
BITMAP
025200
1DCE20
2FFF10
C9F960
F9F9A0
F8C8A0
FDCE90
8EFD30
ENDCHAR
STARTCHAR Ubreve
ENCODING 364
SWIDTH 578 0
DWIDTH 5 0
BBX 5 8 0 0
BITMAP
025200
1EEE20
2FFF10
C9F960
F9F9A0
F8C8A0
FDCE90
8EFD30
ENDCHAR
STARTCHAR ubreve
ENCODING 365
SWIDTH 578 0
DWIDTH 5 0
BBX 5 8 0 0
BITMAP
025200
1EEE20
2FFF10
C9F960
F9F9A0
F8C8A0
FDCE90
8EFD30
ENDCHAR
STARTCHAR Uring
ENCODING 366
SWIDTH 578 0
DWIDTH 5 0
BBX 5 8 0 0
BITMAP
026200
0C9B00
1FFF00
C9F960
F9F9A0
F8C8A0
FDCE90
8EFD30
ENDCHAR
STARTCHAR uring
ENCODING 367
SWIDTH 578 0
DWIDTH 5 0
BBX 5 8 0 0
BITMAP
026200
0C9C00
1FFF00
C9F960
F9F9A0
F8C8A0
FDCE90
8EFD30
ENDCHAR
STARTCHAR Uhungarumlaut
ENCODING 368
SWIDTH 581 0
DWIDTH 5 0
BBX 5 8 0 0
BITMAP
00AB30
06BA80
1DFE10
C9F960
F9F9A0
F8C8A0
FDCE90
8EFD30
ENDCHAR
STARTCHAR uhungarumlaut
ENCODING 369
SWIDTH 582 0
DWIDTH 5 0
BBX 5 8 0 0
BITMAP
00AB30
06BA80
1DFE10
C9F960
F9F9A0
F8C8A0
FDCE90
8EFD30
ENDCHAR
STARTCHAR Uogonek
ENCODING 370
SWIDTH 578 0
DWIDTH 5 0
BBX 5 6 0 0
BITMAP
155300
C9F960
F9F9A0
F8C8A0
FD7E90
8EBD30
ENDCHAR
STARTCHAR uogonek
ENCODING 371
SWIDTH 578 0
DWIDTH 5 0
BBX 5 6 0 0
BITMAP
155300
C9F960
F9F9A0
F8C8A0
FD7E90
8EBD30
ENDCHAR
STARTCHAR Wcircumflex
ENCODING 372
SWIDTH 578 0
DWIDTH 5 0
BBX 5 8 0 0
BITMAP
05C300
0C7900
1FFD00
BA8860
F848A0
F568A0
FDED90
8EFD30
ENDCHAR
STARTCHAR wcircumflex
ENCODING 373
SWIDTH 578 0
DWIDTH 5 0
BBX 5 8 0 0
BITMAP
05C300
0C7900
1FFD00
BA8860
F848A0
F568A0
FDED90
8EFD30
ENDCHAR
STARTCHAR Ycircumflex
ENCODING 374
SWIDTH 578 0
DWIDTH 5 0
BBX 5 8 0 0
BITMAP
04C300
0B7A00
1FFE00
C9E960
FE4EA0
FF8FA0
FFEF90
8EFD30
ENDCHAR
STARTCHAR ycircumflex
ENCODING 375
SWIDTH 578 0
DWIDTH 5 0
BBX 5 8 0 0
BITMAP
04C300
0B7A00
1FFE00
C9E960
FE4EA0
FF8FA0
FFEF90
8EFD30
ENDCHAR
STARTCHAR Ydieresis
ENCODING 376
SWIDTH 578 0
DWIDTH 5 0
BBX 5 8 0 0
BITMAP
014100
0CDC00
1FFE00
C9E960
FE4EA0
FF8FA0
FFEF90
8EFD30
ENDCHAR
STARTCHAR Zacute
ENCODING 377
SWIDTH 578 0
DWIDTH 5 0
BBX 5 8 0 0
BITMAP
03A400
099900
1EF500
CC6C60
FF8FA0
FAAEA0
FDCD90
8EFD30
ENDCHAR
STARTCHAR zacute
ENCODING 378
SWIDTH 578 0
DWIDTH 5 0
BBX 5 8 0 0
BITMAP
03A400
099900
1EF500
CC6C60
FF8FA0
FAAEA0
FDCD90
8EFD30
ENDCHAR
STARTCHAR Zdotaccent
ENCODING 379
SWIDTH 578 0
DWIDTH 5 0
BBX 5 8 0 0
BITMAP
024100
4FDD00
5FFF00
CC6C60
FF8FA0
FAAEA0
FDCD90
8EFD30
ENDCHAR
STARTCHAR zdotaccent
ENCODING 380
SWIDTH 578 0
DWIDTH 5 0
BBX 5 8 0 0
BITMAP
024100
4FDD00
5FFF00
CC6C60
FF8FA0
FAAEA0
FDCD90
8EFD30
ENDCHAR
STARTCHAR Zcaron
ENCODING 381
SWIDTH 578 0
DWIDTH 5 0
BBX 5 8 0 0
BITMAP
088600
0D9B00
1EFA00
CC6C60
FF8FA0
FAAEA0
FDCD90
8EFD30
ENDCHAR
STARTCHAR zcaron
ENCODING 382
SWIDTH 578 0
DWIDTH 5 0
BBX 5 8 0 0
BITMAP
088600
0D9B00
1EFA00
CC6C60
FF8FA0
FAAEA0
FDCD90
8EFD30
ENDCHAR
STARTCHAR longs
ENCODING 383
SWIDTH 578 0
DWIDTH 5 0
BBX 5 6 0 0
BITMAP
155300
CBAC60
FBCAA0
FCADA0
FFFF90
8EFD30
ENDCHAR
STARTCHAR florin
ENCODING 402
SWIDTH 578 0
DWIDTH 5 0
BBX 5 6 0 0
BITMAP
155300
CF7E60
FC7FA0
FE9FA0
FBBF90
8EFD30
ENDCHAR
STARTCHAR uni01CD
ENCODING 461
SWIDTH 578 0
DWIDTH 5 0
BBX 5 8 0 0
BITMAP
078600
0D8C00
1DFB00
C99A60
F7A8A0
F8F8A0
FDFD90
8EFD30
ENDCHAR
STARTCHAR uni01CE
ENCODING 462
SWIDTH 578 0
DWIDTH 5 0
BBX 5 8 0 0
BITMAP
078700
0C8D00
1CFC00
CB9A60
FA99A0
F7C9A0
FDCE90
8EFD30
ENDCHAR
STARTCHAR uni01CF
ENCODING 463
SWIDTH 578 0
DWIDTH 5 0
BBX 5 8 0 0
BITMAP
068700
0C8D00
1CFC00
CB5B60
FF9FA0
FD7DA0
FDCD90
8EFD30
ENDCHAR
STARTCHAR uni01D0
ENCODING 464
SWIDTH 578 0
DWIDTH 5 0
BBX 5 8 0 0
BITMAP
068700
0C8D00
1CFC00
CB5B60
FF9FA0
FD7DA0
FDCD90
8EFD30
ENDCHAR
STARTCHAR uni01D1
ENCODING 465
SWIDTH 578 0
DWIDTH 5 0
BBX 5 8 0 0
BITMAP
078700
0C8C00
1DFC00
C89860
F9F9A0
F8C8A0
FDCD90
8EFD30
ENDCHAR
STARTCHAR uni01D3
ENCODING 467
SWIDTH 578 0
DWIDTH 5 0
BBX 5 8 0 0
BITMAP
068700
0C8D00
1CFC00
C9F960
F9F9A0
F8C8A0
FDCE90
8EFD30
ENDCHAR
STARTCHAR uni01D4
ENCODING 468
SWIDTH 578 0
DWIDTH 5 0
BBX 5 8 0 0
BITMAP
068700
0C8D00
1CFC00
C9F960
F9F9A0
F8C8A0
FDCE90
8EFD30
ENDCHAR
STARTCHAR uni0200
ENCODING 512
SWIDTH 578 0
DWIDTH 5 0
BBX 5 8 0 0
BITMAP
3BA000
7AB600
1FFC00
C99A60
F7A8A0
F8F8A0
FDFD90
8EFD30
ENDCHAR
STARTCHAR uni0201
ENCODING 513
SWIDTH 578 0
DWIDTH 5 0
BBX 5 8 0 0
BITMAP
3BA000
7AB600
1FFC00
CB9A60
FA99A0
F7C9A0
FDCE90
8EFD30
ENDCHAR
STARTCHAR uni0202
ENCODING 514
SWIDTH 578 0
DWIDTH 5 0
BBX 5 8 0 0
BITMAP
036200
3EAE10
2FFF00
C99A60
F7A8A0
F8F8A0
FDFD90
8EFD30
ENDCHAR
STARTCHAR uni0203
ENCODING 515
SWIDTH 578 0
DWIDTH 5 0
BBX 5 8 0 0
BITMAP
036200
3EAE10
2FFF00
CB9A60
FA99A0
F7C9A0
FDCE90
8EFD30
ENDCHAR
STARTCHAR uni0204
ENCODING 516
SWIDTH 578 0
DWIDTH 5 0
BBX 5 8 0 0
BITMAP
3BA000
7AB600
1FFC00
C99C60
F99DA0
F9CEA0
FECD90
8EFD30
ENDCHAR
STARTCHAR uni0205
ENCODING 517
SWIDTH 578 0
DWIDTH 5 0
BBX 5 8 0 0
BITMAP
3BA000
7AB600
1FFC00
C79A60
F69BA0
F7AEA0
FEDF90
8EFD30
ENDCHAR
STARTCHAR uni0206
ENCODING 518
SWIDTH 578 0
DWIDTH 5 0
BBX 5 8 0 0
BITMAP
036200
3EAE10
2FFF00
C99C60
F99DA0
F9CEA0
FECD90
8EFD30
ENDCHAR
STARTCHAR uni0207
ENCODING 519
SWIDTH 578 0
DWIDTH 5 0
BBX 5 8 0 0
BITMAP
036200
3EAE10
2FFF00
C79A60
F69BA0
F7AEA0
FEDF90
8EFD30
ENDCHAR
STARTCHAR uni0208
ENCODING 520
SWIDTH 578 0
DWIDTH 5 0
BBX 5 8 0 0
BITMAP
3BA000
7AB600
1FFC00
CB5B60
FF9FA0
FD7DA0
FDCD90
8EFD30
ENDCHAR
STARTCHAR uni0209
ENCODING 521
SWIDTH 578 0
DWIDTH 5 0
BBX 5 8 0 0
BITMAP
3BA000
7AB600
1FFC00
CB5B60
FF9FA0
FD7DA0
FDCD90
8EFD30
ENDCHAR
STARTCHAR uni020A
ENCODING 522
SWIDTH 578 0
DWIDTH 5 0
BBX 5 8 0 0
BITMAP
036200
3EAE10
2FFF00
CB5B60
FF9FA0
FD7DA0
FDCD90
8EFD30
ENDCHAR
STARTCHAR uni020B
ENCODING 523
SWIDTH 578 0
DWIDTH 5 0
BBX 5 8 0 0
BITMAP
036200
3EAE10
2FFF00
CB5B60
FF9FA0
FD7DA0
FDCD90
8EFD30
ENDCHAR
STARTCHAR uni020C
ENCODING 524
SWIDTH 578 0
DWIDTH 5 0
BBX 5 8 0 0
BITMAP
3BA000
7AB600
1FFC00
C89860
F9F9A0
F8C8A0
FDCD90
8EFD30
ENDCHAR
STARTCHAR uni020D
ENCODING 525
SWIDTH 578 0
DWIDTH 5 0
BBX 5 8 0 0
BITMAP
3BA000
7AB600
1FFC00
C89860
F9F9A0
F8C8A0
FDCD90
8EFD30
ENDCHAR
STARTCHAR uni020E
ENCODING 526
SWIDTH 578 0
DWIDTH 5 0
BBX 5 8 0 0
BITMAP
036200
3EAE10
2FFF00
C89860
F9F9A0
F8C8A0
FDCD90
8EFD30
ENDCHAR
STARTCHAR uni020F
ENCODING 527
SWIDTH 578 0
DWIDTH 5 0
BBX 5 8 0 0
BITMAP
036200
3EAE10
2FFF00
C89860
F9F9A0
F8C8A0
FDCD90
8EFD30
ENDCHAR
STARTCHAR uni0210
ENCODING 528
SWIDTH 578 0
DWIDTH 5 0
BBX 5 8 0 0
BITMAP
3BA000
7AB600
1FFC00
C79960
F79AA0
F9F9A0
FEFE90
8EFD30
ENDCHAR
STARTCHAR uni0211
ENCODING 529
SWIDTH 578 0
DWIDTH 5 0
BBX 5 8 0 0
BITMAP
3BA000
7AB600
1FFC00
C79960
F79AA0
F9F9A0
FEFE90
8EFD30
ENDCHAR
STARTCHAR uni0212
ENCODING 530
SWIDTH 578 0
DWIDTH 5 0
BBX 5 8 0 0
BITMAP
036200
3EAE10
2FFF00
C79960
F79AA0
F9F9A0
FEFE90
8EFD30
ENDCHAR
STARTCHAR uni0213
ENCODING 531
SWIDTH 578 0
DWIDTH 5 0
BBX 5 8 0 0
BITMAP
036200
3EAE10
2FFF00
C79960
F79AA0
F9F9A0
FEFE90
8EFD30
ENDCHAR
STARTCHAR uni0214
ENCODING 532
SWIDTH 578 0
DWIDTH 5 0
BBX 5 8 0 0
BITMAP
3BA000
7AB600
1FFC00
C9F960
F9F9A0
F8C8A0
FDCE90
8EFD30
ENDCHAR
STARTCHAR uni0215
ENCODING 533
SWIDTH 578 0
DWIDTH 5 0
BBX 5 8 0 0
BITMAP
3BA000
7AB600
1FFC00
C9F960
F9F9A0
F8C8A0
FDCE90
8EFD30
ENDCHAR
STARTCHAR uni0216
ENCODING 534
SWIDTH 578 0
DWIDTH 5 0
BBX 5 8 0 0
BITMAP
036200
3EAE10
2FFF00
C9F960
F9F9A0
F8C8A0
FDCE90
8EFD30
ENDCHAR
STARTCHAR uni0217
ENCODING 535
SWIDTH 578 0
DWIDTH 5 0
BBX 5 8 0 0
BITMAP
036200
3EAE10
2FFF00
C9F960
F9F9A0
F8C8A0
FDCE90
8EFD30
ENDCHAR
STARTCHAR uni0218
ENCODING 536
SWIDTH 578 0
DWIDTH 5 0
BBX 5 6 0 0
BITMAP
155300
C89C60
FA9BA0
FEC8A0
FD7E90
8EDD30
ENDCHAR
STARTCHAR uni0219
ENCODING 537
SWIDTH 578 0
DWIDTH 5 0
BBX 5 6 0 0
BITMAP
155300
C89C60
FA9BA0
FEC8A0
FD7E90
8EDD30
ENDCHAR
STARTCHAR uni021A
ENCODING 538
SWIDTH 578 0
DWIDTH 5 0
BBX 5 6 0 0
BITMAP
155300
CB5B60
FF9FA0
FF9FA0
FF9F90
8EDD30
ENDCHAR
STARTCHAR uni021B
ENCODING 539
SWIDTH 578 0
DWIDTH 5 0
BBX 5 6 0 0
BITMAP
155300
CB5B60
FF9FA0
FF9FA0
FF9F90
8EDD30
ENDCHAR
STARTCHAR circumflex
ENCODING 710
SWIDTH 355 0
DWIDTH 3 0
BBX 3 3 0 0
BITMAP
4C30
C7A0
BBA0
ENDCHAR
STARTCHAR caron
ENCODING 711
SWIDTH 355 0
DWIDTH 3 0
BBX 3 3 0 0
BITMAP
7860
D8C0
9A70
ENDCHAR
STARTCHAR breve
ENCODING 728
SWIDTH 428 0
DWIDTH 3 0
BBX 4 3 0 0
BITMAP
1430
DEE4
BAC3
ENDCHAR
STARTCHAR dotaccent
ENCODING 729
SWIDTH 428 0
DWIDTH 3 0
BBX 4 3 0 0
BITMAP
1430
DDF4
CCE4
ENDCHAR
STARTCHAR ring
ENCODING 730
SWIDTH 368 0
DWIDTH 3 0
BBX 3 3 0 0
BITMAP
2620
C9B0
DAC0
ENDCHAR
STARTCHAR ogonek
ENCODING 731
SWIDTH 101 0
DWIDTH 1 0
BBX 1 2 0 -2
BITMAP
70
20
ENDCHAR
STARTCHAR tilde
ENCODING 732
SWIDTH 428 0
DWIDTH 3 0
BBX 4 3 0 0
BITMAP
3860
DFE5
BAC4
ENDCHAR
STARTCHAR hungarumlaut
ENCODING 733
SWIDTH 419 0
DWIDTH 3 0
BBX 4 3 0 0
BITMAP
2BA0
AAB3
BB80
ENDCHAR
STARTCHAR uni030F
ENCODING 783
SWIDTH 419 0
DWIDTH 3 0
BBX 4 3 0 0
BITMAP
7B60
BAC1
4CC4
ENDCHAR
STARTCHAR mu
ENCODING 956
SWIDTH 578 0
DWIDTH 5 0
BBX 5 6 0 0
BITMAP
155300
C9F960
F9F9A0
F8C8A0
FBCE90
8EFD30
ENDCHAR
STARTCHAR pi
ENCODING 960
SWIDTH 578 0
DWIDTH 5 0
BBX 5 6 0 0
BITMAP
155300
B96A60
BA9B70
CAE980
FBBC90
8EFD30
ENDCHAR
STARTCHAR uni1E60
ENCODING 7776
SWIDTH 578 0
DWIDTH 5 0
BBX 5 8 0 0
BITMAP
015200
1EDF20
2FFF20
C89C60
FA9BA0
FEC8A0
FDCE90
8EFD30
ENDCHAR
STARTCHAR uni1E8E
ENCODING 7822
SWIDTH 578 0
DWIDTH 5 0
BBX 5 8 0 0
BITMAP
025200
2EDE10
2FFF10
C9E960
FE4EA0
FF8FA0
FFEF90
8EFD30
ENDCHAR
STARTCHAR uni1E8F
ENCODING 7823
SWIDTH 578 0
DWIDTH 5 0
BBX 5 8 0 0
BITMAP
025200
2EDE10
2FFF10
C9E960
FE4EA0
FF8FA0
FFEF90
8EFD30
ENDCHAR
STARTCHAR uni1EBC
ENCODING 7868
SWIDTH 578 0
DWIDTH 5 0
BBX 5 8 0 0
BITMAP
048400
2FFE20
2FFF10
C99C60
F99DA0
F9CEA0
FECD90
8EFD30
ENDCHAR
STARTCHAR uni1EF8
ENCODING 7928
SWIDTH 578 0
DWIDTH 5 0
BBX 5 8 0 0
BITMAP
048400
2FFE20
2FFF10
C9E960
FE4EA0
FF8FA0
FFEF90
8EFD30
ENDCHAR
STARTCHAR uni1EF9
ENCODING 7929
SWIDTH 578 0
DWIDTH 5 0
BBX 5 8 0 0
BITMAP
048400
2FFE20
2FFF10
C9E960
FE4EA0
FF8FA0
FFEF90
8EFD30
ENDCHAR
STARTCHAR endash
ENCODING 8211
SWIDTH 428 0
DWIDTH 3 0
BBX 4 6 0 0
BITMAP
1520
CFF3
F9C7
FFF7
FFF6
8EC1
ENDCHAR
STARTCHAR emdash
ENCODING 8212
SWIDTH 428 0
DWIDTH 3 0
BBX 4 6 0 0
BITMAP
1520
CFF3
9994
FFF7
FFF6
8EC1
ENDCHAR
STARTCHAR quoteleft
ENCODING 8216
SWIDTH 428 0
DWIDTH 3 0
BBX 4 6 0 0
BITMAP
1520
C9F3
FFF7
FFF7
FFF6
8EC1
ENDCHAR
STARTCHAR quoteright
ENCODING 8217
SWIDTH 428 0
DWIDTH 3 0
BBX 4 6 0 0
BITMAP
1520
C9F3
FFF7
FFF7
FFF6
8EC1
ENDCHAR
STARTCHAR quotesinglbase
ENCODING 8218
SWIDTH 428 0
DWIDTH 3 0
BBX 4 6 0 0
BITMAP
1520
CFF3
FFF7
FDF7
FBF6
8EC1
ENDCHAR
STARTCHAR quotedblleft
ENCODING 8220
SWIDTH 428 0
DWIDTH 3 0
BBX 4 6 0 0
BITMAP
1520
C6B3
FFF7
FFF7
FFF6
8EC1
ENDCHAR
STARTCHAR quotedblright
ENCODING 8221
SWIDTH 428 0
DWIDTH 3 0
BBX 4 6 0 0
BITMAP
1520
C793
FFF7
FFF7
FFF6
8EC1
ENDCHAR
STARTCHAR quotedblbase
ENCODING 8222
SWIDTH 428 0
DWIDTH 3 0
BBX 4 6 0 0
BITMAP
1520
CFF3
FFF7
FCD7
FAB6
8EC1
ENDCHAR
STARTCHAR dagger
ENCODING 8224
SWIDTH 578 0
DWIDTH 5 0
BBX 5 6 0 0
BITMAP
155300
CE6E60
FF8FA0
FF9FA0
FFEF90
8EFD30
ENDCHAR
STARTCHAR daggerdbl
ENCODING 8225
SWIDTH 578 0
DWIDTH 5 0
BBX 5 6 0 0
BITMAP
155300
CE6E60
FF8FA0
FE5DA0
FFEF90
8EFD30
ENDCHAR
STARTCHAR bullet
ENCODING 8226
SWIDTH 578 0
DWIDTH 5 0
BBX 5 6 0 0
BITMAP
155300
CA5B60
F405A0
F607A0
FFEF90
8EFD30
ENDCHAR
STARTCHAR ellipsis
ENCODING 8230
SWIDTH 578 0
DWIDTH 5 0
BBX 5 6 0 0
BITMAP
155300
CFFF60
FFFFA0
FDDDA0
FDDD90
8EFD30
ENDCHAR
STARTCHAR perthousand
ENCODING 8240
SWIDTH 640 0
DWIDTH 5 0
BBX 6 6 0 0
BITMAP
155510
69BFD0
B7BED2
F96542
FFFFF2
8EFF90
ENDCHAR
STARTCHAR guilsinglleft
ENCODING 8249
SWIDTH 578 0
DWIDTH 5 0
BBX 5 6 0 0
BITMAP
155300
CFCF60
FEAFA0
FF9FA0
FFDF90
8EFD30
ENDCHAR
STARTCHAR guilsinglright
ENCODING 8250
SWIDTH 578 0
DWIDTH 5 0
BBX 5 6 0 0
BITMAP
155300
CECF60
FF9FA0
FF9FA0
FEEF90
8EFD30
ENDCHAR
STARTCHAR fraction
ENCODING 8260
SWIDTH 428 0
DWIDTH 3 0
BBX 4 6 0 0
BITMAP
1520
CAD3
F9F7
F9F7
FEF6
8EC1
ENDCHAR
STARTCHAR Euro
ENCODING 8364
SWIDTH 578 0
DWIDTH 5 0
BBX 5 6 0 0
BITMAP
155300
C79D60
D3AFA0
F7BEA0
FDCE90
8EFD30
ENDCHAR
STARTCHAR trademark
ENCODING 8482
SWIDTH 578 0
DWIDTH 5 0
BBX 5 6 0 0
BITMAP
155300
CFFF60
F99BA0
FDADA0
FFFF90
8EFD30
ENDCHAR
STARTCHAR product
ENCODING 8719
SWIDTH 578 0
DWIDTH 5 0
BBX 5 6 0 0
BITMAP
155300
B97A60
BCC970
CBBC80
FBBC90
8EFD30
ENDCHAR
STARTCHAR minus
ENCODING 8722
SWIDTH 428 0
DWIDTH 3 0
BBX 4 6 0 0
BITMAP
1520
CFF3
F9C7
FFF7
FFF6
8EC1
ENDCHAR
STARTCHAR notequal
ENCODING 8800
SWIDTH 578 0
DWIDTH 5 0
BBX 5 6 0 0
BITMAP
155300
CD9E60
F83BA0
FDEFA0
FFFF90
8EFD30
ENDCHAR
STARTCHAR uni2706
ENCODING 9990
SWIDTH 578 0
DWIDTH 5 0
BBX 5 6 0 0
BITMAP
155300
CF9E60
F7CEA0
F9AEA0
FFAD90
8EFD30
ENDCHAR
STARTCHAR uni2708
ENCODING 9992
SWIDTH 578 0
DWIDTH 5 0
BBX 5 6 0 0
BITMAP
133200
316030
25A420
206020
203020
327320
ENDCHAR
STARTCHAR uniF6D6
ENCODING 63190
SWIDTH 419 0
DWIDTH 3 0
BBX 4 3 0 0
BITMAP
7B60
BAC1
4CC4
ENDCHAR
STARTCHAR uFFFF2
ENCODING 1048562
SWIDTH 578 0
DWIDTH 5 0
BBX 5 6 0 0
BITMAP
133200
304030
23B220
225220
214020
327320
ENDCHAR
STARTCHAR uFFFF3
ENCODING 1048563
SWIDTH 578 0
DWIDTH 5 0
BBX 5 6 0 0
BITMAP
133200
316130
23B220
23A320
204020
322320
ENDCHAR
STARTCHAR uFFFF4
ENCODING 1048564
SWIDTH 578 0
DWIDTH 5 0
BBX 5 6 0 0
BITMAP
155300
CECE60
FABAA0
FABBA0
FFEF90
8EFD30
ENDCHAR
STARTCHAR uFFFF5
ENCODING 1048565
SWIDTH 578 0
DWIDTH 5 0
BBX 5 6 0 0
BITMAP
155300
CE9F60
FA5BA0
FF9FA0
FFCF90
8EAD30
ENDCHAR
STARTCHAR uFFFF6
ENCODING 1048566
SWIDTH 578 0
DWIDTH 5 0
BBX 5 6 0 0
BITMAP
155300
CFBF60
FC4DA0
FDADA0
FEBF90
8EAD30
ENDCHAR
STARTCHAR uFFFF8
ENCODING 1048568
SWIDTH 578 0
DWIDTH 5 0
BBX 5 6 0 0
BITMAP
155300
CE9F60
FA4CA0
F519A0
FD6E90
8EAD30
ENDCHAR
STARTCHAR uFFFF9
ENCODING 1048569
SWIDTH 578 0
DWIDTH 5 0
BBX 5 6 0 0
BITMAP
133200
313130
254520
254420
201020
322320
ENDCHAR
STARTCHAR uFFFFB
ENCODING 1048571
SWIDTH 578 0
DWIDTH 5 0
BBX 5 6 0 0
BITMAP
155300
CD7E60
FC4FA0
FB4DA0
FFCF90
8EFD30
ENDCHAR
STARTCHAR uFFFFC
ENCODING 1048572
SWIDTH 578 0
DWIDTH 5 0
BBX 5 6 0 0
BITMAP
155300
B97960
F87AA0
FFAFA0
FFFF90
8EFD30
ENDCHAR
STARTCHAR uFFFFD
ENCODING 1048573
SWIDTH 578 0
DWIDTH 5 0
BBX 5 6 0 0
BITMAP
155300
CA4D60
F739A0
FA4DA0
FE9F90
8EAD30
ENDCHAR
STARTCHAR uFFFFE
ENCODING 1048574
SWIDTH 578 0
DWIDTH 5 0
BBX 5 6 0 0
BITMAP
155300
AA9960
C97AA0
DA99A0
FFFF90
8EFD30
ENDCHAR
STARTCHAR uFFFFF
ENCODING 1048575
SWIDTH 578 0
DWIDTH 5 0
BBX 5 6 0 0
BITMAP
133200
35B330
28C620
25B220
216020
337320
ENDCHAR
STARTCHAR .notdef
ENCODING -1
SWIDTH 1000 0
DWIDTH 8 0
BBX 1 1 0 0
BITMAP
00
ENDCHAR
STARTCHAR glyph1
ENCODING -1
SWIDTH 0 0
DWIDTH 0 0
BBX 1 1 0 0
BITMAP
00
ENDCHAR
ENDFONT
